<?xml version="1.0" standalone="no"?>
<!DOCTYPE svg PUBLIC "-//W3C//DTD SVG 1.1//EN" "http://www.w3.org/Graphics/SVG/1.1/DTD/svg11.dtd">
<svg xmlns="http://www.w3.org/2000/svg">
<metadata>Generated by Fontastic.me</metadata>
<defs>
<font id="itours" horiz-adv-x="512">
<font-face font-family="itours" units-per-em="512" ascent="480" descent="-32"/>
<missing-glyph horiz-adv-x="512" />

<glyph glyph-name="exclamation-circle" unicode="&#97;" d="M256 475c40 0 77-9 110-29 34-20 60-46 80-80 20-33 29-70 29-110 0-40-9-77-29-110-20-34-46-60-80-80-33-20-70-29-110-29-40 0-77 9-110 29-34 20-60 46-80 80-20 33-29 70-29 110 0 40 9 77 29 110 20 34 46 60 80 80 33 20 70 29 110 29z m37-356l0 54c0 3-1 5-3 7-2 2-4 3-6 3l-55 0c-3 0-5-1-7-3-2-2-3-4-3-7l0-54c0-2 1-5 3-6 2-2 4-3 7-3l55 0c2 0 4 1 6 2 2 2 3 4 3 7z m-1 98l5 178c0 2-1 4-3 5-2 2-4 2-7 2l-62 0c-3 0-5 0-7-2-2-1-3-3-3-5l5-178c0-1 1-3 3-5 1-1 4-2 6-2l53 0c3 0 5 1 7 2 2 2 3 4 3 5z"/>
<glyph glyph-name="delete" unicode="&#98;" d="M256 0c141 0 256 115 256 256 0 141-115 256-256 256-141 0-256-115-256-256 0-141 115-256 256-256z m0 478c122 0 222-100 222-222 0-122-100-222-222-222-122 0-222 100-222 222 0 122 100 222 222 222z m-104-302l80 80-80 80 24 24 80-80 80 80 24-24-80-80 80-80-24-24-80 80-80-80z"/>
<glyph glyph-name="verified" unicode="&#99;" d="M437 437c-48 48-113 75-181 75-68 0-133-27-181-75-48-48-75-113-75-181 0-68 27-133 75-181 48-48 113-75 181-75 68 0 133 27 181 75 48 48 75 113 75 181 0 68-27 133-75 181z m-181-407c-125 0-226 101-226 226 0 125 101 226 226 226 125 0 226-101 226-226 0-125-101-226-226-226z m122 308c-6 6-15 6-21 0l-132-132-70 69c-6 6-15 6-21 0-6-5-6-15 0-21l80-80c3-3 7-5 11-5 3 0 7 2 10 5l143 143c6 6 6 15 0 21z"/>
<glyph glyph-name="angle-down" unicode="&#100;" d="M399 302c0-3-1-5-3-7l-133-133c-2-2-5-3-7-3-2 0-5 1-7 3l-133 133c-2 2-3 4-3 7 0 2 1 4 3 6l15 15c1 1 4 2 6 2 3 0 5-1 7-2l112-113 112 113c2 1 4 2 7 2 2 0 5-1 6-2l15-15c2-2 3-4 3-6z"/>
<glyph glyph-name="angle-left" unicode="&#101;" d="M344 357c0-3-1-5-3-7l-112-112 112-113c2-1 3-4 3-6 0-3-1-5-3-7l-14-14c-2-2-5-3-7-3-2 0-5 1-7 3l-133 133c-2 2-3 4-3 7 0 2 1 4 3 6l133 133c2 2 5 3 7 3 2 0 5-1 7-3l14-14c2-2 3-4 3-6z"/>
<glyph glyph-name="angle-right" unicode="&#102;" d="M335 238c0-3-1-5-3-7l-133-133c-2-2-5-3-7-3-2 0-5 1-7 3l-14 14c-2 2-3 4-3 7 0 2 1 5 3 6l112 113-112 112c-2 2-3 4-3 7 0 2 1 4 3 6l14 14c2 2 5 3 7 3 2 0 5-1 7-3l133-133c2-2 3-4 3-6z"/>
<glyph glyph-name="angle-up" unicode="&#103;" d="M399 174c0-3-1-5-3-7l-15-14c-1-2-4-3-6-3-3 0-5 1-7 3l-112 112-112-112c-2-2-4-3-7-3-2 0-5 1-6 3l-15 14c-2 2-3 4-3 7 0 2 1 4 3 6l133 133c2 2 5 3 7 3 2 0 5-1 7-3l133-133c2-2 3-4 3-6z"/>
<glyph glyph-name="caret-up" unicode="&#104;" d="M402 165c0-5-2-10-5-13-4-4-8-6-13-6l-256 0c-5 0-9 2-13 6-3 3-5 8-5 13 0 5 2 9 5 12l128 128c4 4 8 6 13 6 5 0 9-2 13-6l128-128c3-3 5-7 5-12z"/>
<glyph glyph-name="caret-right" unicode="&#105;" d="M329 256c0-5-2-9-5-13l-128-128c-4-3-8-5-13-5-5 0-9 2-13 5-4 4-5 8-5 13l0 256c0 5 1 9 5 13 4 3 8 5 13 5 5 0 9-2 13-5l128-128c3-4 5-8 5-13z"/>
<glyph glyph-name="caret-left" unicode="&#106;" d="M347 384l0-256c0-5-1-9-5-13-4-3-8-5-13-5-5 0-9 2-13 5l-128 128c-3 4-5 8-5 13 0 5 2 9 5 13l128 128c4 3 8 5 13 5 5 0 9-2 13-5 4-4 5-8 5-13z"/>
<glyph glyph-name="caret-down" unicode="&#107;" d="M402 311c0-5-2-9-5-13l-128-128c-4-4-8-5-13-5-5 0-9 1-13 5l-128 128c-3 4-5 8-5 13 0 5 2 9 5 13 4 3 8 5 13 5l256 0c5 0 9-2 13-5 3-4 5-8 5-13z"/>
<glyph glyph-name="call-phone" unicode="&#108;" d="M457 158c0-5-1-12-3-20-2-9-4-15-6-20-4-10-15-20-35-30-17-10-35-15-53-15-5 0-10 0-15 1-5 1-10 2-16 4-6 1-11 3-14 4-3 1-8 3-16 6-7 3-12 4-14 5-18 7-35 14-50 24-24 15-49 35-75 61-26 26-47 51-62 76-9 14-17 31-23 50-1 1-3 6-6 14-2 7-4 13-5 16-1 3-3 7-5 13-1 6-2 12-3 17-1 4-1 9-1 15 0 17 5 35 14 53 11 19 21 31 31 35 4 2 11 4 19 6 9 1 15 2 20 2 3 0 5 0 6 0 4-2 9-9 16-22 2-4 5-9 8-16 4-6 7-12 10-18 3-5 6-10 9-15 1-1 2-3 5-7 3-4 5-8 6-10 1-3 2-6 2-8 0-4-3-9-8-15-5-5-11-11-18-15-6-5-12-10-17-16-6-5-9-9-9-13 0-1 1-4 2-6 1-3 2-5 2-6 1-1 2-4 4-7 2-3 3-5 4-5 14-26 31-49 49-67 19-19 41-36 67-50 1 0 3-1 6-3 3-2 5-4 7-4 1-1 3-2 6-3 2-1 4-1 6-1 3 0 8 2 13 8 5 5 11 11 15 18 5 6 10 12 16 17 6 6 10 8 14 8 3 0 6 0 8-2 3-1 7-3 11-6 4-2 6-4 7-5 4-3 10-6 15-9 5-3 11-6 18-10 7-3 12-6 16-8 13-7 20-12 21-15 1-2 1-4 1-6z"/>
<glyph glyph-name="user" unicode="&#109;" d="M479 91c-19 19-93 37-130 56-25 12-37 39-37 62 0 12 8 22 15 30 19 22 34 63 34 118 0 83-49 120-105 120-56 0-105-37-105-120 0-55 15-96 34-118 7-8 15-18 15-30 0-23-12-50-37-62-37-19-111-37-130-56-19-19-19-56-19-56l484 0c0 0 0 37-19 56z"/>
<glyph glyph-name="star" unicode="&#110;" d="M480 320l-157 20-67 140-67-140-157-20 115-104-29-152 138 74 139-74-30 152z"/>
<glyph glyph-name="sort" unicode="&#111;" d="M402 201c0-5-2-9-5-13l-128-128c-4-3-8-5-13-5-5 0-9 2-13 5l-128 128c-3 4-5 8-5 13 0 5 2 9 5 13 4 4 8 5 13 5l256 0c5 0 9-1 13-5 3-4 5-8 5-13z m0 110c0-5-2-9-5-13-4-4-8-5-13-5l-256 0c-5 0-9 1-13 5-3 4-5 8-5 13 0 5 2 9 5 13l128 128c4 3 8 5 13 5 5 0 9-2 13-5l128-128c3-4 5-8 5-13z"/>
<glyph glyph-name="sort-asc" unicode="&#112;" d="M402 311c0-5-2-9-5-13-4-4-8-5-13-5l-256 0c-5 0-9 1-13 5-3 4-5 8-5 13 0 5 2 9 5 13l128 128c4 3 8 5 13 5 5 0 9-2 13-5l128-128c3-4 5-8 5-13z"/>
<glyph glyph-name="sort-desc" unicode="&#113;" d="M402 201c0-5-2-9-5-13l-128-128c-4-3-8-5-13-5-5 0-9 2-13 5l-128 128c-3 4-5 8-5 13 0 5 2 9 5 13 4 4 8 5 13 5l256 0c5 0 9-1 13-5 3-4 5-8 5-13z"/>
<glyph glyph-name="android-add-circle" unicode="&#114;" d="M256 464c-115 0-208-93-208-208 0-115 93-208 208-208 115 0 208 93 208 208 0 115-93 208-208 208z m107-229l-86 0 0-86-42 0 0 86-86 0 0 42 86 0 0 86 42 0 0-86 86 0z"/>
<glyph glyph-name="android-remove-circle" unicode="&#115;" d="M256 464c-115 0-208-93-208-208 0-115 93-208 208-208 115 0 208 93 208 208 0 115-93 208-208 208z m107-229l-214 0 0 42 214 0z"/>
<glyph glyph-name="shopping-cart" unicode="&#116;" d="M201 73c0-10-3-19-11-26-7-7-15-10-25-10-11 0-19 3-26 10-7 7-11 16-11 26 0 10 4 19 11 26 7 7 15 11 26 11 10 0 18-4 25-11 8-7 11-16 11-26z m256 0c0-10-3-19-11-26-7-7-15-10-25-10-11 0-19 3-26 10-7 7-11 16-11 26 0 10 4 19 11 26 7 7 15 11 26 11 10 0 18-4 25-11 8-7 11-16 11-26z m37 311l0-146c0-5-2-9-5-12-3-4-7-6-12-7l-298-34c0-2 1-4 1-7 1-2 2-5 2-7 1-2 1-5 1-6 0-3-2-10-7-19l263 0c5 0 9-2 13-5 3-4 5-8 5-13 0-5-2-9-5-13-4-3-8-5-13-5l-293 0c-5 0-9 2-13 5-3 4-5 8-5 13 0 3 1 6 3 11 2 5 5 11 9 17 3 7 5 10 5 11l-50 235-58 0c-5 0-10 2-13 6-4 3-6 8-6 13 0 5 2 9 6 12 3 4 8 6 13 6l73 0c3 0 5-1 8-2 2-1 4-3 6-4 1-2 2-4 3-7 1-3 2-6 2-8 1-2 1-5 2-8 1-4 1-6 1-8l343 0c5 0 10-2 13-5 4-4 6-8 6-13z"/>
<glyph glyph-name="verification-square-button" unicode="&#118;" d="M502 512l-491 0c-6 0-11-5-11-11l0-491c0-6 5-11 11-11l491 0c6 0 11 5 11 11l0 491c0 6-5 11-11 11z m-87-175l-207-207c-1-1-3-2-5-2-1 0-3 1-4 2l-101 100c-1 2-2 3-2 5 0 2 1 3 2 5l35 35c3 2 7 2 10 0l60-61 167 167c3 3 7 3 9 0l36-35c1-1 2-3 2-5 0-1-1-3-2-4z"/>
<glyph glyph-name="arrow-right" unicode="&#117;" d="M494 257c0-3-1-5-3-7l-110-101c-3-3-6-3-10-2-3 2-5 5-5 8l0 64-357 0c-3 0-5 1-6 3-2 2-3 4-3 7l0 54c0 3 1 5 3 7 1 2 3 3 6 3l357 0 0 64c0 4 2 6 5 8 4 1 7 1 10-2l110-100c2-1 3-4 3-6z"/>
<glyph glyph-name="arrow-left" unicode="&#119;" d="M512 283l0-54c0-3-1-5-3-7-1-2-3-3-6-3l-357 0 0-64c0-4-2-6-5-8-4-1-7-1-10 2l-110 100c-2 1-3 4-3 6 0 3 1 5 3 7l110 101c3 3 6 3 10 2 3-2 5-5 5-8l0-64 357 0c3 0 5-1 6-3 2-2 3-4 3-7z"/>
<glyph glyph-name="filter" unicode="&#120;" d="M456 428c3-8 2-15-4-20l-141-141 0-212c0-8-4-14-11-17-3-1-5-1-7-1-6 0-10 1-13 5l-73 73c-4 4-6 8-6 13l0 139-141 141c-6 5-7 12-4 20 4 7 9 11 17 11l366 0c8 0 13-4 17-11z"/>
<glyph glyph-name="cancel-circle" unicode="&#121;" d="M256 484c-126 0-228-102-228-228 0-126 102-228 228-228 126 0 228 102 228 228 0 126-102 228-228 228z m94-322c-5-5-12-7-18-7-7 0-13 3-19 7l-57 58-58-58c-5-5-11-7-18-7-6 0-13 3-18 7-10 10-10 26 0 36l58 58-58 58c-10 10-10 26 0 36 10 10 26 10 36 0l58-58 57 58c10 10 26 10 36 0 10-10 10-26 0-36l-57-58 57-58c11-10 11-26 1-36z"/>
<glyph glyph-name="clock-1" unicode="&#65;" d="M284 268l0 97c0 16-12 28-28 28-16 0-28-12-28-28l0-109c0-2 0-4 0-6 0 0 0-1 1-2 0-1 0-2 1-3 0-1 1-2 1-3 0 0 1-1 1-2 1-1 3-3 4-4l77-77c6-6 13-8 20-8 7 0 15 2 20 8 11 11 11 29 0 40z m-28 216c-126 0-228-102-228-228 0-126 102-228 228-228 125 0 228 102 228 228 0 126-103 228-228 228z m0-399c-94 0-171 77-171 171 0 94 77 171 171 171 94 0 171-77 171-171 0-94-77-171-171-171z"/>
<glyph glyph-name="skyline" unicode="&#122;" d="M0 21l0-10c0-6 5-11 11-11l490 0c6 0 11 5 11 11l0 10-512 0z m203 299l-171 0c-6 0-11-5-11-11l0-298c0-6 5-11 11-11l171 0c6 0 10 5 10 11l0 298c0 6-4 11-10 11z m-11-299l-149 0 0 278 149 0z m288 427l-171 0c-6 0-10-5-10-11l0-426c0-6 4-11 10-11l171 0c6 0 11 5 11 11l0 426c0 6-5 11-11 11z m-11-427l-149 0 0 406 149 0z m-64 491l-288 0c-6 0-10-5-10-11l0-160 21 0 0 150 267 0 0-22 21 0 0 32c0 6-5 11-11 11z m-341-235l21 0 0-192-21 0z m43 0l21 0 0-192-21 0z m42 0l22 0 0-192-22 0z m160 118l118 0 0-22-118 0z m0-54l118 0 0-21-118 0z m0-53l118 0 0-21-118 0z m0-53l118 0 0-22-118 0z m0-54l118 0 0-21-118 0z m0-53l118 0 0-21-118 0z m-149 331l21 0 0-32-21 0z m0-64l21 0 0-32-21 0z m43 0l21 0 0-32-21 0z m0 64l21 0 0-32-21 0z m42 0l22 0 0-32-22 0z m0-64l22 0 0-32-22 0z m0-64l22 0 0-32-22 0z m0-64l22 0 0-32-22 0z m0-64l22 0 0-32-22 0z m0-64l22 0 0-32-22 0z m160-64l-53 0c-6 0-11-5-11-11l0-53 22 0 0 42 32 0 0-42 21 0 0 53c0 6-5 11-11 11z m-245-11l-85 0c-6 0-11-5-11-11l0-42 21 0 0 32 64 0 0-32 22 0 0 42c0 6-5 11-11 11z"/>
<glyph glyph-name="align-left" unicode="&#66;" d="M512 128l0-37c0-5-2-9-5-12-4-4-8-6-13-6l-476 0c-5 0-9 2-13 6-3 3-5 7-5 12l0 37c0 5 2 9 5 13 4 3 8 5 13 5l476 0c5 0 9-2 13-5 3-4 5-8 5-13z m-110 110l0-37c0-5-2-9-5-13-4-3-8-5-13-5l-366 0c-5 0-9 2-13 5-3 4-5 8-5 13l0 37c0 5 2 9 5 13 4 3 8 5 13 5l366 0c5 0 9-2 13-5 3-4 5-8 5-13z m73 109l0-36c0-5-1-9-5-13-4-4-8-5-13-5l-439 0c-5 0-9 1-13 5-3 4-5 8-5 13l0 36c0 5 2 10 5 13 4 4 8 6 13 6l439 0c5 0 9-2 13-6 4-3 5-8 5-13z m-109 110l0-36c0-5-2-10-6-13-3-4-8-6-13-6l-329 0c-5 0-9 2-13 6-3 3-5 8-5 13l0 36c0 5 2 9 5 13 4 4 8 5 13 5l329 0c5 0 10-1 13-5 4-4 6-8 6-13z"/>
<glyph glyph-name="text-align-left" unicode="&#67;" d="M32 416l0 32 448 0 0-32z m0-128l0 32 448 0 0-32z m0-128l0 32 448 0 0-32z m0 192l0 32 320 0 0-32z m0-128l0 32 320 0 0-32z m0-128l0 32 320 0 0-32z"/>
<glyph glyph-name="calendar" unicode="&#68;" d="M55 37l82 0 0 82-82 0z m100 0l92 0 0 82-92 0z m-100 100l82 0 0 92-82 0z m100 0l92 0 0 92-92 0z m-100 110l82 0 0 82-82 0z m210-210l92 0 0 82-92 0z m-110 210l92 0 0 82-92 0z m220-210l82 0 0 82-82 0z m-110 100l92 0 0 92-92 0z m-100 247l0 82c0 3-1 5-3 7-2 2-4 2-7 2l-18 0c-2 0-4 0-6-2-2-2-3-4-3-7l0-82c0-2 1-5 3-6 2-2 4-3 6-3l18 0c3 0 5 1 7 3 2 1 3 4 3 6z m210-247l82 0 0 92-82 0z m-110 110l92 0 0 82-92 0z m110 0l82 0 0 82-82 0z m9 137l0 82c0 3-1 5-3 7-2 2-4 2-6 2l-18 0c-3 0-5 0-7-2-2-2-3-4-3-7l0-82c0-2 1-5 3-6 2-2 4-3 7-3l18 0c2 0 4 1 6 3 2 1 3 4 3 6z m110 18l0-365c0-10-4-19-11-26-7-7-16-11-26-11l-402 0c-10 0-19 4-26 11-7 7-11 16-11 26l0 365c0 10 4 19 11 26 7 7 16 11 26 11l36 0 0 27c0 13 5 24 14 33 9 9 20 13 32 13l18 0c13 0 24-4 33-13 9-9 13-20 13-33l0-27 110 0 0 27c0 13 4 24 13 33 9 9 20 13 33 13l18 0c12 0 23-4 32-13 9-9 14-20 14-33l0-27 36 0c10 0 19-4 26-11 7-7 11-16 11-26z"/>
<glyph glyph-name="hour-glass" unicode="&#69;" d="M407 461l27 0 0 51-370 0 0-51 32 0c4-96 39-159 101-180l0-53c-61-21-96-83-101-177l-32 0 0-51 370 0 0 51-27 0c-5 94-40 156-101 177l0 53c62 21 97 84 101 180m-116-255c67-17 87-90 91-155l-26 0-45 52-57 68-58-68-45-52-29 0c3 65 23 138 90 155l10 2 0 93-10 2c-69 17-88 92-91 158l261 0c-3-66-22-141-91-158l-10-2 0-93z m17 151l-105 0 26-31 27-30 26 30z"/>
<glyph glyph-name="bus" unicode="&#70;" d="M496 352l-16 0 0-96 16 0c9 0 16 7 16 16l0 64c0 9-7 16-16 16m-144 128l-192 0c-53 0-96-43-96-96l0-288c0-18 14-32 32-32l0-32c0-18 14-32 32-32l32 0c18 0 32 14 32 32l0 32 128 0 0-32c0-18 14-32 32-32l32 0c18 0 32 14 32 32l0 32c18 0 32 14 32 32l0 288c0 53-43 96-96 96m-160-32l128 0 0-32-128 0z m-64-352c-18 0-32 14-32 32 0 18 14 32 32 32 18 0 32-14 32-32 0-18-14-32-32-32m256 0c-18 0-32 14-32 32 0 18 14 32 32 32 18 0 32-14 32-32 0-18-14-32-32-32m32 96l-320 0 0 192 320 0z m-416 144l0-64c0-9 7-16 16-16l16 0 0 96-16 0c-9 0-16-7-16-16"/>
<glyph glyph-name="handshake" unicode="&#71;" d="M510 294l-86 111c-3 4-9 5-13 2l-56-35-72 0c-1 0-2 0-2 0l-56-16-58 15-57 36c-4 3-10 2-13-2l-95-117c-3-4-3-11 1-14l50-43 45-60c-13-14-13-36 0-49 6-6 14-10 22-10 0-2 0-4 0-6 0-9 3-18 10-25 7-7 16-10 25-10 0 0 0 0 0 0 0-1 0-1 0-1 0-9 4-18 11-25 7-7 15-10 25-10 2 0 4 0 5 0 1-8 5-16 11-22 7-7 16-10 25-10 9 0 18 3 25 10l5 6 2-2c7-7 16-10 25-10 9 0 18 3 25 10 7 7 11 17 11 26 9 0 18 3 25 10 7 7 11 17 11 26 9 0 18 4 25 10 7 7 11 17 11 26 9 0 18 3 25 10 12 12 14 31 5 45l32 68 49 42c4 3 5 10 2 14z m-403 92l41-26-89-108-35 31z m6-228l12 12c0 0 1 1 1 1 2 2 5 3 8 3 1 0 1 0 1 0 0 0 1 1 1 1 4-1 8-2 11-5 6-6 5-16-1-22l-12-12c-6-6-15-6-21 0-6 6-6 16 0 22z m31-63c-3 3-4 7-4 11 0 4 1 8 4 11l24 24c4 4 12 6 17 3 6-3 10-10 9-16-1-4-2-7-5-9l-23-24c-3-3-7-4-11-4-4 0-8 1-11 4z m36-36c-3 3-5 7-5 11 0 4 2 8 5 11l24 24c5 4 12 6 18 2 6-3 9-9 8-15-1-4-2-7-5-10l-23-23c-3-3-7-4-11-4-4 0-8 1-11 4z m41-31c-6 6-6 15 0 21l12 13c0 0 1 0 1 1 0 0 0 0 0 0 2 1 5 2 7 3 0 0 0 0 0 0 1 0 1 0 2 0 0 0 0 0 0 0 0 0 1 0 1 0 4 0 8-2 11-5 0 0 1 0 1-1 5-6 4-15-2-21l-11-11c-6-6-16-6-22 0z m187 112c-6-6-16-6-22 0 0 0 0 0 0 0l-65 65c-4 4-10 4-14 0-4-3-4-10 0-14l65-66c0 0 0 0 0 0 6-6 6-15 0-21-3-3-7-5-11-5-4 0-8 2-11 5l-43 44c-4 4-11 4-15 0-4-4-4-11 0-14l43-44c1 0 1 0 1-1 6-6 6-15 0-21-6-6-16-6-22 0l-24 24c-3 4-10 4-14 0-4-4-4-11 0-14l23-24c1 0 1 0 1-1 6-6 6-15 0-21-6-6-16-6-22 0 0 0-1 1-2 1-1 1-1 1-1 2 1 1 1 2 2 2 0 1 0 2 1 3 1 5 2 10 1 16-1 9-7 18-15 24-5 3-10 5-15 6 3 11-1 24-9 32-6 7-15 11-25 11 0 0-1 0-1 0 0 9-3 19-9 25-7 7-16 11-26 11-3 0-5 0-8-1-1 9-6 16-12 22-6 5-14 8-23 9-9 0-17-4-24-10l-39 53 93 113 30-8-39-68c-5-9-6-18-3-27 2-10 8-17 16-22 1 0 1 0 2-1 0 0 0 0 0 0 1 0 3-1 4-1 7-3 14-3 21-1 9 2 17 8 22 17l25 44 45-3 119-120c6-6 6-15 0-21z m4 46l-112 112c0 0 0 0 0 0-2 1-4 2-6 2l-55 4c-4 1-8-1-9-5l-29-50c-2-3-5-6-9-7-4-1-8 0-12 2-3 2-6 5-7 9-1 4-1 8 1 12l38 66 15 5c1 0 1 0 1 0l57 16 69 0 86-109z m41 73l-80 101 41 25 74-96z m-143 132c3 0 5 1 7 3l69 69c4 3 4 10 0 14-4 4-11 4-14 0l-69-69c-4-4-4-10 0-14 2-2 4-3 7-3z m-115 3c2-2 4-3 7-3 2 0 5 1 7 3 4 4 4 10 0 14l-69 69c-4 4-10 4-14 0-4-4-4-11 0-14z m61-3c5 0 10 5 10 10l0 57c0 5-5 10-10 10-6 0-10-5-10-10l0-57c0-5 4-10 10-10z m-9 103c1-4 5-6 9-6 5 0 8 3 9 7 2 4 0 8-3 11-3 3-8 3-12 0-4-2-5-7-3-12z"/>
<glyph glyph-name="printer" unicode="&#72;" d="M424 384l-40 0 0 64-256 0 0-64-40 0c-28 0-56-17-56-55l0-123c0-38 28-62 56-62 0 0 31 0 40 0l0-112 256 0 0 112c10 0 40 0 40 0 28 0 56 23 56 54l0 131c0 36-28 55-56 55z m-56-336l-224 0 0 176 224 0z m0 336l-224 0 0 48 224 0z m48-64l-17 0 0 16 17 0z m-256-128l192 0 0-16-192 0z m0-48l192 0 0-16-192 0z m0-48l192 0 0-16-192 0z"/>
<glyph glyph-name="icon" unicode="&#73;" d="M512 395l0-155c0 0-33-6-40-7-7-1-28-8-44 7-24 23-109 107-109 107 0 0-14 15-38 2-21-11-53-28-67-34-25-14-46 8-46 24 0 13 8 21 19 27 31 19 95 55 122 69 16 9 28 10 50-9 27-23 52-44 52-44 0 0 8-7 21-4 31 6 80 17 80 17z m-338-262c4 10 2 22-5 30-8 7-18 9-28 7 3 10 1 20-6 28-7 7-17 9-27 6 3 10 1 21-6 28-11 11-30 11-43-1-13-12-21-34-10-47 12-13 25-5 34-3-2-10-11-19 0-32 10-12 24-5 34-2-3-10-11-20-1-32 10-12 26-6 36-2-4-11-13-22-1-35 11-13 37-7 50 5 12 12 14 32 2 43-7 8-19 10-29 7z m231 80c-91 92-48 49-98 98 0 0-14 15-34 7-14-6-31-15-45-21-14-8-25-10-30-10-28 0-51 23-51 51 0 19 10 34 24 44 21 14 68 39 68 39 0 0-15 18-46 18-31 0-97-43-97-43 0 0-19-12-45-1l-51 17 0-177c0 0 15-4 28-9 3 8 7 16 14 22 22 21 58 21 77 1 6-6 11-14 13-22 8-2 15-7 21-13 6-6 10-13 12-21 8-3 15-7 21-13 6-7 11-15 13-24 8-2 16-7 22-13 12-12 16-29 13-45 0 0 0 0 0 0 1 0 8-8 12-13 9-8 23-8 32 0 9 9 9 23 0 32 0 1-32 33-29 36 2 2 42-39 43-40 9-9 23-9 32 0 9 9 9 23 0 32-1 0-2 2-3 3 0 0-40 35-37 38 3 3 53-43 53-43 8-8 22-8 30 1 9 8 9 21 2 30-1 0-38 39-35 42 3 3 40-35 40-35 9-9 23-9 32 0 9 9 9 23 0 32 0 0 0 0-1 0z"/>
<glyph glyph-name="checkmark" unicode="&#74;" d="M462 402l-55 44c-2 1-4 2-6 2-3 0-5-1-7-2l-199-257c0 0-79 75-81 78-2 2-5 6-10 6-4 0-6-4-8-6-2-2-30-31-44-46-1-1-1-1-2-2-1-1-2-3-2-5 0-3 1-4 2-6l3-3c0 0 139-134 142-136 2-2 5-5 9-5 4 0 7 4 9 6l249 320c1 2 2 4 2 6 0 2-1 5-2 6z"/>
<glyph glyph-name="search" unicode="&#75;" d="M498 14c-19-19-49-19-68 0l-85 85c-35-22-76-36-121-36-124 0-224 101-224 225 0 124 100 224 224 224 124 0 225-100 225-224 0-45-14-86-36-121l85-85c19-19 19-49 0-68z m-274 434c-88 0-160-72-160-160 0-89 72-161 160-161 89 0 161 72 161 161 0 88-72 160-161 160z"/>
<glyph glyph-name="sort-1" unicode="&#76;" d="M171 512l-114-113 85 0 0-200 57 0 0 200 85 0z m199-399l0 200-57 0 0-200-85 0 113-113 114 113z"/>
<glyph glyph-name="check-in" unicode="&#77;" d="M408 377c-1 2-3 3-5 3-1 0-1 1-2 1l-198 0c-4 0-7-4-7-7l0-82c0-4 3-7 7-7 4 0 7 3 7 7l0 74 144 0-100-29c-3-1-5-4-5-7l0-256-39 0 0 71c0 4-3 7-7 7-4 0-7-3-7-7l0-78c0-4 3-7 7-7l46 0 0-37c0-2 1-4 3-5 2-2 4-2 6-1l146 43c3 1 5 4 5 7l0 306c0 2-1 3-1 4z m-109-196c-12 0-22 10-22 22 0 13 10 22 22 22 12 0 22-9 22-22 0-12-10-22-22-22z m8 22c0-4-3-8-8-8-4 0-8 4-8 8 0 5 4 8 8 8 5 0 8-3 8-8z m0 199c22 0 41 15 46 37 5 21-6 43-26 52-20 10-43 4-57-13-14-18-13-44 3-61 9-10 21-15 34-15z m-10 66c0 3 3 7 7 7 3 0 7-4 7-7l0-19 8-5c3-2 4-6 2-9-2-4-7-5-10-3l-11 8c-2 1-3 3-3 5z m-64-243l-41 41c-3 3-7 3-10 0-3-2-3-7 0-10l29-29-112 0c-4 0-7-3-7-7 0-3 3-7 7-7l112 0-29-29c-3-2-3-7 0-10 3-2 7-2 10 0l41 41c3 3 3 8 0 10z"/>
<glyph glyph-name="check-out" unicode="&#78;" d="M307 203c0-4-3-8-8-8-4 0-8 4-8 8 0 5 4 8 8 8 5 0 8-3 8-8z m101 174c-1 2-3 3-5 3-1 0-1 1-2 1l-198 0c-4 0-7-4-7-7l0-82c0-4 3-7 7-7 4 0 7 3 7 7l0 75 144 0-100-30c-3-1-5-4-5-7l0-307c0-2 1-4 3-5 2-2 4-2 6-1l146 43c3 1 5 4 5 7l0 306c0 1 0 1 0 2-1 0-1 1-1 2z m-109-196c-12 0-22 10-22 22 0 13 10 22 22 22 12 0 22-9 22-22 0-12-10-22-22-22z m-89-107l0 71c0 4-3 7-7 7-4 0-7-3-7-7l0-78c0-4 3-7 7-7l46 0 0 14z m97 328c26 0 47 21 47 47 0 26-21 47-47 47-26 0-47-21-47-47 0-13 5-25 14-33 9-9 21-14 33-14z m-13 61c2 4 6 5 9 3l12-8c2-1 3-3 3-6l0-22c0-4-3-7-7-7-4 0-7 3-7 7l0 19-8 5c-3 2-4 6-2 9z m-178-250l112 0c4 0 7 4 7 7 0 4-3 7-7 7l-112 0 29 29c3 3 3 8 0 10-3 3-7 3-10 0l-41-41c-3-2-3-7 0-10l41-41c3-2 7-2 10 0 3 3 3 8 0 10z"/>
<glyph glyph-name="timetable" unicode="&#79;" d="M482 220l0 246c0 8-7 15-15 15l-76 0 0 16c0 8-7 15-15 15-8 0-15-7-15-15l0-16-60 0 0 16c0 8-7 15-15 15-8 0-15-7-15-15l0-16-60 0 0 16c0 8-7 15-15 15-8 0-15-7-15-15l0-16-60 0 0 16c0 8-7 15-15 15-8 0-15-7-15-15l0-16-76 0c-8 0-15-7-15-15l0-391c0-8 7-15 15-15l250 0c24-36 65-60 112-60 74 0 135 61 135 135 0 32-11 62-30 85z m-391 231l0-15c0-8 7-15 15-15 8 0 15 7 15 15l0 15 60 0 0-15c0-8 7-15 15-15 8 0 15 7 15 15l0 15 60 0 0-15c0-8 7-15 15-15 8 0 15 7 15 15l0 15 60 0 0-15c0-8 7-15 15-15 8 0 15 7 15 15l0 15 61 0 0-60-422 0 0 60z m-61-361l0 271 422 0 0-114c-21 15-47 23-75 23-47 0-89-25-113-62-2 1-5 2-7 2l-30 0c-8 0-15-7-15-15 0-8 7-15 15-15l23 0c-4-10-6-20-7-30l-16 0c-8 0-15-7-15-15 0-8 7-15 15-15l16 0c1-10 3-20 7-30z m347-60c-58 0-105 47-105 105 0 58 47 105 105 105 58 0 105-47 105-105 0-58-47-105-105-105z m60 120l-45 0 0 45c0 8-7 15-15 15-8 0-15-7-15-15l0-60c0-8 7-15 15-15l60 0c8 0 15 7 15 15 0 8-7 15-15 15z m-301 180l-30 0c-8 0-15-7-15-15 0-8 7-15 15-15l30 0c8 0 15 7 15 15 0 8-7 15-15 15z m0-60l-30 0c-8 0-15-7-15-15 0-8 7-15 15-15l30 0c8 0 15 7 15 15 0 8-7 15-15 15z m0-60l-30 0c-8 0-15-7-15-15 0-8 7-15 15-15l30 0c8 0 15 7 15 15 0 8-7 15-15 15z m91 90l30 0c8 0 15 7 15 15 0 8-7 15-15 15l-30 0c-8 0-15-7-15-15 0-8 7-15 15-15z m0-60l30 0c8 0 15 7 15 15 0 8-7 15-15 15l-30 0c-8 0-15-7-15-15 0-8 7-15 15-15z m-91-90l-30 0c-8 0-15-7-15-15 0-8 7-15 15-15l30 0c8 0 15 7 15 15 0 8-7 15-15 15z m211 150l30 0c8 0 15 7 15 15 0 8-7 15-15 15l-30 0c-8 0-15-7-15-15 0-8 7-15 15-15z"/>
<glyph glyph-name="person-stalker" unicode="&#80;" d="M425 187c-41 16-39 10-39 39 0 18 10 12 16 47 2 14 4 5 9 28 2 11-2 12-1 18 0 6 1 11 2 22 1 15-12 52-58 52-46 0-58-37-57-52 1-11 1-16 2-22 0-6-4-7-1-18 4-23 6-13 9-28 6-35 15-29 15-47 0-14 3-19-15-28 5-2 12-4 19-7 55-21 53-41 55-50 1-7 1-59 1-77l98 0c0 0 0 80-1 90-2 7-11 17-54 33z m-68-123c0 0 0 14 0 30 0 19-1 40-2 47-1 9-14 22-68 43-8 2-14 5-20 7-33 12-31 15-31 48 0 24 12 8 20 54 3 19 5 6 12 36 3 15-3 16-2 23 1 8 1 14 3 29 1 18-15 67-74 67-60 0-76-48-75-67 2-15 2-21 3-29 1-7-5-8-1-23 6-30 8-17 11-36 8-46 20-30 20-54 0-38 3-35-50-55-55-21-67-34-69-43-2-12-2-77-2-77z"/>
<glyph glyph-name="gas-station" unicode="&#81;" d="M466 445l-42 43c-5 4-11 4-16 0-4-5-4-11 0-16l36-35-36-35c-2-2-3-5-3-7l0-32c0-24 19-43 43-43l0-181c0-6-5-11-11-11-6 0-10 5-10 11l0 21c0 18-15 32-32 32l-11 0 0 277c0 24-19 43-43 43l-213 0c-24 0-43-19-43-43l0-384c-23 0-42-19-42-42l0-32c0-6 4-11 10-11l363 0c6 0 11 5 11 11l0 32c0 23-19 42-43 42l0 86 11 0c6 0 10-5 10-11l0-21c0-18 15-32 32-32 18 0 32 14 32 32l0 298c0 3-1 6-3 8z m-125-115c0-5-4-10-10-10l-192 0c-6 0-11 5-11 10l0 129c0 6 5 10 11 10l192 0c6 0 10-4 10-10z"/>
<glyph glyph-name="dashboard" unicode="&#82;" d="M499 391c-72 49-156 75-243 75-87 0-171-26-243-75l-13-9 166-231 12 7c19 12 41 20 63 22l0-39c-19-6-33-25-33-46 0-27 21-49 48-49 27 0 48 22 48 49 0 21-14 40-33 46l0 39c22-2 44-10 63-22l12-7 166 231z m-243-315c-10 0-18 9-18 19 0 10 8 18 18 18 10 0 18-8 18-18 0-10-8-19-18-19z m81 115c-20 11-43 17-66 19l0 149-30 0 0-149c-23-2-46-8-66-19l-133 183c14 9 28 16 42 23l20-35 26 14-18 33c16 6 31 11 47 15l8-36 29 7-7 35c17 3 34 5 52 5l0-35 30 0 0 35c17 0 35-2 52-5l-8-35 29-7 8 36c16-4 32-9 47-15l-18-33 27-14 19 36c15-7 29-15 43-24z"/>
<glyph glyph-name="ac" unicode="&#83;" d="M348 296c14 5 28 3 44-1 10-2 20-4 32-4 16 0 31 4 46 13 22 14 38 39 41 66 4 32-8 63-33 88-25 25-58 39-94 39-36 0-71-14-96-40-33-33-54-84-54-132-8 6-15 13-18 23-6 15-3 28 1 44 4 20 10 46-9 78-16 26-46 42-77 42-28 0-55-12-77-34-52-52-52-138 1-190 32-32 85-54 132-54-6-8-13-15-23-18-14-5-28-3-44 1-10 2-20 4-32 4-16 0-31-4-46-13-22-14-38-39-41-66-4-32 8-63 33-88 25-25 58-39 94-39 36 0 71 14 96 40 33 33 54 84 54 132 8-6 15-13 18-23 6-15 3-28-1-44-4-20-10-46 9-78 16-26 46-42 77-42 28 0 55 12 77 34 52 52 52 138-1 190-32 32-85 54-132 54 6 8 13 15 23 18z m-70-62c-12-12-32-12-44 0-12 12-12 32 0 44 6 6 14 9 22 9 8 0 16-3 22-9 12-12 12-32 0-44z"/>
<glyph glyph-name="location-pin" unicode="&#84;" d="M362 353c0-58-47-106-106-106-59 0-106 48-106 106 0 59 47 106 106 106 59 0 106-47 106-106z m-106 159c-88 0-159-71-159-159l0-1c0-42 17-82 47-112l13-14c47-47 77-106 87-172 1-6 6-10 12-10 6 0 11 4 12 10 10 66 40 125 87 172l13 14c30 30 47 70 47 112l0 1c0 88-71 159-159 159z m-26-318l-18 0 0 18 18 0z m35 0l-18 0 0 18 18 0z m35 0l-18 0 0 18 18 0z m-44 36c-68 0-124 55-124 123 0 68 56 124 124 124 68 0 124-56 124-124 0-68-56-123-124-123z m41-129c-2-5-3-11-5-17 26-6 43-19 43-31 0-17-32-35-79-35-47 0-79 18-79 35 0 12 17 25 43 31-2 6-3 11-5 17-34-8-56-27-56-48 0-30 43-53 97-53 54 0 97 23 97 53 0 21-22 40-56 48z"/>
<glyph glyph-name="briefcase" unicode="&#85;" d="M320 174c0-5-2-9-6-13-3-4-8-5-13-5l-91 0c-5 0-9 1-13 5-3 4-5 8-5 13l0 46-192 0 0-137c0-13 4-24 13-33 9-9 20-13 33-13l420 0c13 0 23 4 32 13 9 9 14 20 14 33l0 137-192 0z m-101 46l73 0 0-37-73 0z m279 169c-9 9-19 13-32 13l-101 0 0 46c0 8-2 14-8 19-5 6-11 8-19 8l-164 0c-8 0-14-2-20-8-5-5-8-11-8-19l0-46-100 0c-13 0-24-4-33-13-9-9-13-20-13-32l0-110 512 0 0 110c0 12-5 23-14 32z m-169 13l-146 0 0 37 146 0z"/>
<glyph glyph-name="suitcase" unicode="&#86;" d="M395 376l-27-63c-5-12-17-21-30-21l-44 0 0-8c0-7-1-12-8-12l-56 0c-7 0-16 5-16 12l0 8-37 0c-12 0-25 9-30 21l-28 63c-8-7-13-17-13-28l0-292c0-18 14-34 32-36 2-11 12-20 24-20 12 0 22 8 23 20l146 0c1-12 11-20 23-20 12 0 20 9 22 20 18 2 30 18 30 36l0 292c0 11-3 22-11 28z m-29-304l-216 0c-7 0-12 5-12 12 0 7 5 12 12 12l216 0c6 0 12-5 12-12 0-7-6-12-12-12z m0 72l-216 0c-7 0-12 5-12 12 0 7 5 12 12 12l216 0c6 0 12-5 12-12 0-7-6-12-12-12z m0 72l-216 0c-7 0-12 5-12 12 0 7 5 12 12 12l216 0c6 0 12-5 12-12 0-7-6-12-12-12z m8 168l-72 0 0 116c0 7-2 12-8 12l-72 0c-6 0-12-5-12-12l0-116-68 0c-3 0-6 0-9-1l28-64c3-6 10-11 16-11l161 0c6 0 14 5 16 11l28 64c-3 1-5 1-8 1z m-96 0l-44 0 0 104 44 0z"/>
<glyph glyph-name="model-s" unicode="&#87;" d="M509 121c-1-4-2-8-3-11-3-6-6-6-16-6-13 1-32 0-52 0 0-6 0-9 0-9 2-15 8-15 11-15 3 0 39 0 43 0 4 0 7 0 10 2 4 2 5 9 6 20 1 2 1 4 1 7 0 0 0 0 0 0 0 1 0 2 0 3 0 0 0 1 0 1 0 3 0 6 0 8z m-506 0c1-4 2-8 3-11 3-6 5-6 16-6 13 1 32 0 52 0 0-6 0-9 0-9-2-15-9-15-11-15-3 0-39 0-43 0-4 0-7 0-10 2-4 2-5 9-7 20 0 2 0 4 0 7 0 0 0 0 0 0 0 1 0 2 0 3 0 0 0 1 0 1 0 3 0 6 0 8z m509 94c0 31-4 61-6 64-1 3-8 9-26 21-18 12-17 10-20 18 2 1 5 3 7 3 4 0 4-3 12-3 8 0 25 2 28 5 4 4 5 5 5 8 0 3-2 10-5 13-4 4-18 6-27 7-8 1-9 0-12-1-3-2-3-22-3-22l-9-1c-5 14-12 40-24 62-13 23-26 30-32 32-5 1-10 2-48 6-38 4-69 5-96 5-27 0-58-1-96-5-37-4-42-5-48-6-5-2-19-9-32-32-11-22-19-48-24-62l-9 1c0 0 0 20-3 22-3 1-4 2-12 1-9-1-23-3-27-7-3-3-5-10-5-13 0-3 1-4 5-8 3-3 20-5 28-5 8 0 8 3 12 3 2 0 5-2 8-3-4-8-3-6-21-18-17-12-25-18-26-21-2-3-6-33-6-64 0-30 2-58 2-68 0-4 0-11 1-18 1-4 2-8 3-11 3-6 5-6 16-6 13 1 32 0 52 0 13-1 26-1 38-2 30 0 22 5 34 4 13 0 64-2 110-2 46 0 97 2 109 2 13 1 4-4 34-4 12 0 26 1 39 2 20 0 39 1 52 0 10 0 13 0 16 6 1 3 2 7 3 11 1 7 1 14 1 18 0 10 2 38 2 68z m-426 152c5 11 19 33 26 37 2 1 17 6 54 9 35 2 73 3 90 3 18 0 56-1 90-3 37-3 52-7 54-9 9-6 21-26 26-37 5-11 11-33 10-36-1-3 1-5-15-4-16 2-117 3-165 3-47 0-148-1-165-3-16-1-13 1-15 4-1 3 5 24 10 36z m37-125c-7-2-11-6-20-6-9 0-34 4-39 4-5 0-10-3-12-4-3-1-8 1-16 4-8 2-13 2-16 12-2 11 0 27 0 27 18 1 34-1 66-10 31-9 48-26 48-26 0 0-4 0-11-1z m235-79c-14-2-74-3-102-3-28 0-88 1-102 3-15 2-34 19-21 33 18 19 15 18 55 24 35 4 61 4 68 4 7 0 33 0 68-4 40-6 37-5 55-24 13-14-6-31-21-33z m134 89c-3-10-7-10-15-12-8-3-14-5-16-4-3 1-8 4-13 4-5 0-29-4-38-4-9 0-14 4-21 5-7 2-11 2-11 2 0 0 17 17 49 26 31 9 48 10 65 10 0 0 3-16 0-27z"/>
<glyph glyph-name="cutlery" unicode="&#88;" d="M256 427c-94 0-171-77-171-171 0-94 77-171 171-171 94 0 171 77 171 171 0 94-77 171-171 171z m-107-171c0-6-4-11-10-11-6 0-11 5-11 11 0 71 57 128 128 128 6 0 11-5 11-11 0-6-5-10-11-10-59 0-107-48-107-107z m235 0c0-71-57-128-128-128-6 0-11 5-11 11 0 6 5 10 11 10 59 0 107 48 107 107 0 6 4 11 10 11 6 0 11-5 11-11z m117 171c-29 0-53-24-53-54l0-117c0-18 14-32 32-32l11 0 0-128c0-6 4-11 10-11 6 0 11 5 11 11l0 320c0 6-5 11-11 11z m-416-11c0 6-4 11-10 11-6 0-11-5-11-11l0-96c0-8-4-14-11-18l0 114c0 6-4 11-10 11-6 0-11-5-11-11l0-114c-6 4-11 10-11 18l0 96c0 6-4 11-10 11-6 0-11-5-11-11l0-96c0-20 14-36 32-41l0-183c0-6 5-11 11-11 6 0 10 5 10 11l0 183c19 5 32 21 32 41l0 96z"/>
<glyph glyph-name="coffee" unicode="&#89;" d="M327 382c-5 3-7 8-7 13 0 4 2 9 6 13 1 0 1 0 1 0 9 8 14 18 14 29 0 12-5 22-14 30-5 4-11 3-15-2-4-4-3-11 1-15 5-3 7-8 7-13 0-4-2-9-7-13 0 0 0 0 0 0-9-8-14-18-14-29 0-12 5-22 14-30 2-2 5-2 7-2 3 0 6 1 8 4 4 4 3 11-1 15z m-64 0c-5 3-7 8-7 13 0 4 2 9 7 13 9 8 14 18 14 29 0 12-5 22-14 30-5 4-12 3-15-2-4-4-3-11 1-15 4-3 7-8 7-13 0-4-3-9-7-13-9-8-14-18-14-29 0-12 5-22 14-30 2-2 4-2 7-2 3 0 6 1 8 4 4 4 3 11-1 15z m-64 0c-5 3-7 8-7 13 0 5 2 9 7 13 9 8 14 18 14 29 0 12-5 22-14 30-5 4-11 3-15-2-4-4-3-11 1-15 5-3 7-8 7-13 0-5-3-9-7-13-9-8-14-18-14-29 0-12 5-22 14-30 2-2 5-2 7-2 3 0 6 1 8 4 4 4 3 11-1 15z m312-145c-5 30-28 54-58 60-16 3-33 1-48-6l0 18c0 18-14 32-32 32l-256 0c-17 0-32-14-32-32l0-138c0-24 10-47 25-64l-99 0c-4 0-7-2-9-5-2-4-3-7-1-11l4-7c12-26 38-41 67-41l344 0c28 0 54 15 67 41l3 7c2 4 2 7 0 11-2 3-5 5-9 5l-97 0c13 14 22 31 24 50 30-15 69-7 90 19 15 17 21 39 17 61z m-74-45c-17 0-32 14-32 32 0 18 15 32 32 32 18 0 32-14 32-32 0-18-14-32-32-32z"/>
<glyph glyph-name="dinner" unicode="&#90;" d="M510 155c-2 3-5 5-9 5l-490 0c-4 0-7-2-9-5-2-3-3-7-1-10 15-30 45-49 79-49l352 0c34 0 64 19 79 49 2 3 1 7-1 10z m-225 216c2 4 3 8 3 13 0 18-14 32-32 32-18 0-32-14-32-32 0-5 1-9 3-13-97-13-173-91-183-190l424 0c-10 99-86 177-183 190z m-39-62c-60-4-111-43-131-99-1-4-6-7-10-7-1 0-2 0-3 1-6 2-9 8-7 13 23 65 81 109 150 114 5 0 11-4 11-10 0-6-4-11-10-12z"/>
<glyph glyph-name="bed" unicode="&#48;" d="M37 219l493 0c5 0 10-1 13-5 4-4 6-8 6-13l0-128-74 0 0 73-438 0 0-73-74 0 0 348c0 5 2 9 6 12 3 4 8 6 13 6l36 0c5 0 10-2 13-6 4-3 6-7 6-12z m164 92c0 20-7 37-21 52-15 14-32 21-52 21-20 0-37-7-52-21-14-15-21-32-21-52 0-20 7-38 21-52 15-14 32-21 52-21 20 0 37 7 52 21 14 14 21 32 21 52z m348-73l0 18c0 30-11 56-33 78-21 21-47 32-77 32l-201 0c-5 0-10-2-13-6-4-3-6-8-6-13l0-109z"/>
<glyph glyph-name="dot" unicode="&#49;" d="M256 312c16 0 29-5 40-16 11-11 16-24 16-40 0-15-5-28-16-39-11-12-24-17-40-17-16 0-29 5-40 17-11 11-16 24-16 39 0 16 5 29 16 40 11 11 24 16 40 16"/>
<glyph glyph-name="globe" unicode="&#50;" d="M256 475c40 0 77-9 110-29 34-20 60-46 80-80 20-33 29-70 29-110 0-40-9-77-29-110-20-34-46-60-80-80-33-20-70-29-110-29-40 0-77 9-110 29-34 20-60 46-80 80-20 33-29 70-29 110 0 40 9 77 29 110 20 34 46 60 80 80 33 20 70 29 110 29z m78-148c0-1-1-2-2-3-2-2-3-3-4-3 0 0 1 1 1 2 0 1 1 2 1 3 1 1 1 2 1 2 2 1 4 2 7 4 2 1 7 2 15 3 6 2 11 1 14-3 0 1 1 2 3 4 2 2 3 3 4 3 1 1 2 1 4 2 3 0 4 1 5 2l0 6c-2 0-4 1-5 2-1 2-2 4-2 6 0 0 0-1-1-2 0 1-1 2-2 2-1 0-2 0-3 0-1-1-2-1-3 0-1 0-3 1-4 2-1 1-2 2-2 4-1 3-1 4-1 5-1 1-2 2-3 3-1 1-2 2-3 3 0 0 0 1 0 1-1 1-1 2-1 2-1 1-1 1-1 2-1 0-1 0-2 0-1 0-1 0-2-1-1-1-1-2-2-3-1-1-1-1-1-1-1 0-2 0-2 0-1 0-1 0-1 0-1 0-1-1-2-1 0 0-1-1-1-1-1 0-2-1-3-1-1 0-1 0-2 0 3 1 3 2 0 3-2 0-4 1-5 1 2 0 3 1 2 3 0 2-1 3-2 4l1 0c0 1-1 2-2 2-2 1-3 2-5 3-2 1-3 1-4 2-1 1-5 1-10 2-5 1-8 1-9 0-1-1-1-2-1-3 0 0 0-2 1-4 1-1 1-3 1-3 0-1 0-3-2-4-1-1-2-2-2-3 0-2 2-3 4-5 3-1 4-3 3-6 0-1-2-3-4-4-3-2-4-3-5-4-1-1-1-3 0-5 0-2 1-4 3-5 0 0 0-1 0-1 0 0 0-1-1-1 0-1-1-1-1-1-1-1-2-1-2-1l-1-1c-2-1-4 0-6 2-2 2-3 4-4 7-1 5-3 8-4 9-5 1-8 1-9-1-1 3-5 5-11 8-5 2-11 2-17 1 1 0 1 2 0 4-1 3-3 4-5 4 0 1 1 3 1 5 0 2 0 3 0 4 1 2 2 4 3 6 1 0 1 1 2 3 2 1 2 2 3 3 1 2 1 2 2 2 6-1 11 0 14 3 1 1 2 3 3 5 1 2 2 4 3 5 2 1 3 2 4 2 1-1 2-1 4-2 2-1 3-1 4-1 3-1 5 0 5 3 0 2-1 4-2 5 2 0 2 2 1 5-1 2-2 2-3 3-2 1-5 0-7-2-2 0-2-1 0-2 0 0-1-1-3-3-1-2-3-4-4-5-2-1-3-1-5 2 0 0-1 1-1 3-1 3-2 4-3 4-2 0-3-1-5-4 1 2 0 3-3 4-3 2-5 2-7 3 4 2 3 4-2 7-1 1-3 2-6 2-2 0-4 0-5-1-1-2-2-3-2-4 0-1 0-1 1-2 1-1 2-1 3-2 1 0 2 0 4-1 1 0 2 0 2-1 3-1 4-3 2-4 0 0-1 0-2-1-1 0-2 0-3-1-1 0-2-1-2-1-1-1-1-2 0-4 1-2 0-3-1-4-1 1-1 3-2 5-1 2-2 4-2 5 1-2-1-3-7-2l-3 0c-1 0-2 0-5 0-2-1-4-1-6-1-1 1-2 1-3 3-1 1-1 3 0 5 0 1 0 1 1 1-1 1-2 1-3 3-2 1-3 2-3 2-9-3-18-7-27-12 1 0 2 0 3 1 1 0 2 1 4 2 2 0 2 1 3 1 6 3 10 3 12 2l1 2c3-3 5-6 6-8-1 1-4 1-9 1-3-1-5-3-6-4 1-2 2-4 2-5-1 1-2 2-4 3-1 1-3 2-4 3-1 1-3 1-4 2-3 0-5-1-6-1-28-15-51-36-68-63 2-1 3-2 4-2 1-1 1-1 1-3 0-2 1-3 1-3 0-1 1 0 3 1 2-2 2-4 1-6 0 0 5-2 13-7 3-4 5-6 6-6 0-3-1-4-3-6 0 1-1 2-3 3-1 1-2 2-2 1-1-1-1-3 0-5 1-3 2-4 3-4-1 0-2-1-3-4 0-3-1-7-1-10 0-4 0-6 0-7l1 0c-1-3 0-6 1-10 2-5 4-6 6-6-2 0 0-5 6-12 1-2 2-3 2-3 1 0 2-1 4-2 2-1 3-2 4-3 1-1 2-2 3-3 1-1 2-3 3-6 1-3 2-6 4-7-1-1 0-3 3-6 2-2 3-4 3-6-1 0-1 0-1 0 0-1-1-1-1-1 1-1 2-2 5-4 2-1 3-2 4-3 0-1 0-2 1-3 0-2 0-3 0-3 1-1 2-1 3-1 0 4-2 10-7 18-3 4-5 7-5 8-1 1-1 2-2 4 0 2 0 4-1 5 1 0 1-1 2-1 1 0 1 0 2-1 1 0 2-1 2-1 1 0 1-1 1-1-1-1 0-3 1-5 1-2 2-4 3-5 1-2 3-3 5-6 2-2 3-3 3-3 1-1 3-3 4-6 2-2 2-4 0-4 2 0 4-1 6-3 2-1 4-3 5-5 1-2 2-4 2-8 1-3 1-5 2-7 0-1 1-2 2-3 1-2 2-3 4-3l4-2 4-2c1-1 3-2 5-3 3-2 5-3 6-4 2 0 4-1 5-1 1 0 2 0 4 1 2 0 3 1 4 1 3 0 5-1 8-4 3-4 5-6 6-6 7-4 12-5 16-4-1 0 0 0 0-2 0-1 1-2 2-4 1-2 2-3 3-4 1-1 1-2 1-3 1-1 3-2 6-4 2-2 4-3 5-4 1 0 2 1 2 2-1-1 0-3 2-5 2-3 3-4 5-3 3 0 4 3 4 9-6-3-11-1-14 5 0 0 0 1-1 2 0 0-1 1-1 2 0 1-1 2-1 2 0 1 0 2 0 3 0 0 1 0 2 0 1 0 2 1 3 1 0 1 0 2-1 4-1 2-1 3-1 4 0 1-1 3-3 5-2 3-3 4-4 5-1-2-2-3-4-3-2 1-4 1-5 3 0 0 0-1 0-2-1 0-1-1-1-1-2 0-4 0-4 0 0 0 0 2 1 5 0 3 0 5 1 6 0 1 0 2 1 4 1 1 2 3 2 4 1 1 1 2 2 3 0 2-1 2-2 3-1 1-2 1-5 1-3 0-6-2-7-6 0 0-1-1-1-3 0-1-1-2-1-3-1-1-2-2-3-2-1-1-4-1-7-1-3 0-5 1-7 2-2 1-4 4-6 8-2 4-3 8-3 11 0 1 0 4 1 7 0 3 1 6 1 7 0 2-1 4-2 7 1 1 2 2 3 3 1 1 2 2 3 3 0 0 0 0 1 0 0 1 1 1 1 0 1 0 1 0 1 1 1 0 1 1 1 2 0 0 0 0-1 0-1 1-1 1-1 1 1 0 4 0 8 1 4 1 7 0 8-1 3-2 5-2 6 1 0 0 0 1-1 3 0 1 0 2 0 3 1-5 4-6 9-2 0-1 2-1 4-2 2 0 4 0 5-1 1 0 1-1 2-2 1 0 1-1 2-1 0 0 0 0 1 0 1 1 1 1 2 2 2-3 3-5 4-7 2-7 4-12 5-12 2-1 3-1 3-1 1 0 2 1 2 3 0 1 0 3 0 4 0 1-1 2-1 3l0 3 0 5 0 2c-3 1-5 2-6 4 0 1 0 3 1 5 1 2 2 3 4 5 0 0 1 1 2 1 2 1 3 1 5 2 1 1 3 2 3 2 4 4 6 7 5 10 1 0 2 1 3 3 0 0-1 0-2 1 0 0-1 1-2 1 0 1-1 1-1 1 2 1 2 2 1 4 1 1 1 2 2 3 0 2 1 3 2 3 2-2 4-2 6 0 1 1 1 3 0 4 1 2 3 3 6 3 3 1 5 2 5 3 2 0 2 0 3 1 0 0 0 1 0 3 0 2 0 3 1 3 0 1 2 2 4 3 2 1 3 1 4 1l5 4c0 0 0 1 0 1 3-1 6 0 8 3 2 2 2 4-1 6 0 1 0 2-1 2-1 1-3 1-4 2 0 0 1 0 3 0 1 0 2 0 3 0 3 2 2 4-2 5-3 1-7 0-12-3z m-46-251c39 7 72 25 100 54-1 1-2 1-4 1-1 1-3 1-3 1-4 2-6 2-7 3 0 1 0 2-1 3 0 1-1 2-2 3-1 0-2 1-4 2-1 1-2 2-3 2 0 1-1 1-2 2-1 1-1 1-2 1 0 1-1 1-2 2-1 0-2 0-2 0-1 0-2 0-3 0l-1 0c-1 0-1-1-2-1 0 0-1-1-1-1-1 0-1 0-1-1 0 0 0 0 0 0-4 3-8 5-11 6-1 0-2 1-3 1-1 1-2 2-3 2-1 1-2 1-3 1-1 0-2-1-3-2-1-1-1-3-2-4 0-2 0-4 0-4-1 1-1 2 0 5 1 2 1 4 0 5 0 1-1 2-3 1-1 0-2 0-3-1-1 0-2-1-3-2-2-1-2-2-3-2 0 0-1-1-2-2-2-1-2-1-3-2 0-1-1-2-1-3-1-2-1-3-2-3 0 0-1 1-3 1-2 1-3 1-3 2 1-2 1-5 1-10 1-5 1-8 2-11 1-6 0-10-4-14-5-4-8-8-8-11-1-4 0-7 3-7 0-2 0-4-2-6-1-3-2-5-2-6 0-2 0-3 1-5z"/>
<glyph glyph-name="globe-1" unicode="&#51;" d="M256 512c-141 0-256-115-256-256 0-141 115-256 256-256 141 0 256 115 256 256 0 141-115 256-256 256z m-223-272l80 0c1-30 5-56 11-80l-70 0c-12 25-19 51-21 80z m239 144l0 93c15-12 48-40 71-93l-71 0z m83-32c7-23 11-50 12-80l-95 0 0 80z m-122 119c3 2 5 4 7 6l0-93-71 0c8 19 18 35 28 48 13 18 26 31 36 39z m7-119l0-80-95 0c1 30 6 57 13 80z m-127-80l-80 0c2 28 9 55 21 80l70 0c-6-24-10-50-11-80z m32-32l95 0 0-80-83 0c-7 23-11 50-12 80z m95-112l0-93c-15 12-48 40-71 93z m39-87c-3-2-5-4-7-6l0 93 71 0c-8-19-18-35-28-49-13-17-26-30-36-38z m-7 119l0 80 95 0c-1-30-6-57-13-80z m127 80l80 0c-2-29-9-55-21-80l-70 0c6 24 10 50 11 80z m0 32c-1 30-5 56-11 80l70 0c12-25 19-52 21-80z m41 112l-63 0c-14 36-32 64-50 84 46-15 85-45 113-84z m-256 84c-17-20-35-48-49-84l-63 0c28 39 67 69 112 84z m-112-340l63 0c14-36 32-64 49-84-45 15-84 45-112 84z m256-84c17 20 35 48 49 84l63 0c-28-39-67-69-112-84z"/>
<glyph glyph-name="building" unicode="&#52;" d="M421 512c5 0 9-2 12-5 4-4 6-8 6-13l0-476c0-5-2-9-6-13-3-3-7-5-12-5l-366 0c-5 0-9 2-13 5-4 4-5 8-5 13l0 476c0 5 1 9 5 13 4 3 8 5 13 5z m-238-82l0-19c0-2 1-4 2-6 2-2 4-3 7-3l18 0c3 0 5 1 7 3 2 2 2 4 2 6l0 19c0 2 0 5-2 6-2 2-4 3-7 3l-18 0c-3 0-5-1-7-3-1-1-2-4-2-6z m0-73l0-19c0-2 1-5 2-6 2-2 4-3 7-3l18 0c3 0 5 1 7 3 2 1 2 4 2 6l0 19c0 2 0 4-2 6-2 2-4 3-7 3l-18 0c-3 0-5-1-7-3-1-2-2-4-2-6z m0-74l0-18c0-3 1-5 2-6 2-2 4-3 7-3l18 0c3 0 5 1 7 3 2 1 2 3 2 6l0 18c0 3 0 5-2 7-2 2-4 3-7 3l-18 0c-3 0-5-1-7-3-1-2-2-4-2-7z m0-73l0-18c0-3 1-5 2-7 2-1 4-2 7-2l18 0c3 0 5 1 7 2 2 2 2 4 2 7l0 18c0 3 0 5-2 7-2 2-4 2-7 2l-18 0c-3 0-5 0-7-2-1-2-2-4-2-7z m-37-91l0 18c0 3-1 5-2 7-2 1-4 2-7 2l-18 0c-3 0-5-1-7-2-1-2-2-4-2-7l0-18c0-3 1-5 2-7 2-1 4-2 7-2l18 0c3 0 5 1 7 2 1 2 2 4 2 7z m0 73l0 18c0 3-1 5-2 7-2 2-4 2-7 2l-18 0c-3 0-5 0-7-2-1-2-2-4-2-7l0-18c0-3 1-5 2-7 2-1 4-2 7-2l18 0c3 0 5 1 7 2 1 2 2 4 2 7z m0 73l0 18c0 3-1 5-2 7-2 2-4 3-7 3l-18 0c-3 0-5-1-7-3-1-2-2-4-2-7l0-18c0-3 1-5 2-6 2-2 4-3 7-3l18 0c3 0 5 1 7 3 1 1 2 3 2 6z m0 73l0 19c0 2-1 4-2 6-2 2-4 3-7 3l-18 0c-3 0-5-1-7-3-1-2-2-4-2-6l0-19c0-2 1-5 2-6 2-2 4-3 7-3l18 0c3 0 5 1 7 3 1 1 2 4 2 6z m0 73l0 19c0 2-1 5-2 6-2 2-4 3-7 3l-18 0c-3 0-5-1-7-3-1-1-2-4-2-6l0-19c0-2 1-4 2-6 2-2 4-3 7-3l18 0c3 0 5 1 7 3 1 2 2 4 2 6z m147-365l0 55c0 2-1 4-3 6-2 2-4 3-7 3l-91 0c-3 0-5-1-7-3-1-2-2-4-2-6l0-55c0-3 1-5 2-7 2-2 4-2 7-2l91 0c3 0 5 0 7 2 2 2 3 4 3 7z m0 146l0 18c0 3-1 5-3 7-2 2-4 2-7 2l-18 0c-3 0-5 0-6-2-2-2-3-4-3-7l0-18c0-3 1-5 3-7 1-1 3-2 6-2l18 0c3 0 5 1 7 2 2 2 3 4 3 7z m0 73l0 18c0 3-1 5-3 7-2 2-4 3-7 3l-18 0c-3 0-5-1-6-3-2-2-3-4-3-7l0-18c0-3 1-5 3-6 1-2 3-3 6-3l18 0c3 0 5 1 7 3 2 1 3 3 3 6z m0 73l0 19c0 2-1 4-3 6-2 2-4 3-7 3l-18 0c-3 0-5-1-6-3-2-2-3-4-3-6l0-19c0-2 1-5 3-6 1-2 3-3 6-3l18 0c3 0 5 1 7 3 2 1 3 4 3 6z m0 73l0 19c0 2-1 5-3 6-2 2-4 3-7 3l-18 0c-3 0-5-1-6-3-2-1-3-4-3-6l0-19c0-2 1-4 3-6 1-2 3-3 6-3l18 0c3 0 5 1 7 3 2 2 3 4 3 6z m73-292l0 18c0 3-1 5-3 7-2 1-4 2-6 2l-19 0c-2 0-5-1-6-2-2-2-3-4-3-7l0-18c0-3 1-5 3-7 1-1 4-2 6-2l19 0c2 0 4 1 6 2 2 2 3 4 3 7z m0 73l0 18c0 3-1 5-3 7-2 2-4 2-6 2l-19 0c-2 0-5 0-6-2-2-2-3-4-3-7l0-18c0-3 1-5 3-7 1-1 4-2 6-2l19 0c2 0 4 1 6 2 2 2 3 4 3 7z m0 73l0 18c0 3-1 5-3 7-2 2-4 3-6 3l-19 0c-2 0-5-1-6-3-2-2-3-4-3-7l0-18c0-3 1-5 3-6 1-2 4-3 6-3l19 0c2 0 4 1 6 3 2 1 3 3 3 6z m0 73l0 19c0 2-1 4-3 6-2 2-4 3-6 3l-19 0c-2 0-5-1-6-3-2-2-3-4-3-6l0-19c0-2 1-5 3-6 1-2 4-3 6-3l19 0c2 0 4 1 6 3 2 1 3 4 3 6z m0 73l0 19c0 2-1 5-3 6-2 2-4 3-6 3l-19 0c-2 0-5-1-6-3-2-1-3-4-3-6l0-19c0-2 1-4 3-6 1-2 4-3 6-3l19 0c2 0 4 1 6 3 2 2 3 4 3 6z"/>
<glyph glyph-name="star-1" unicode="&#53;" d="M480 312l-171 0-53 168-52-168-172 0 139-104-55-176 140 112 140-112-55 176z"/>
<glyph glyph-name="plus-circled" unicode="&#54;" d="M256 480c-124 0-224-100-224-224 0-124 100-224 224-224 124 0 224 100 224 224 0 124-100 224-224 224z m128-240l-112 0 0-112-32 0 0 112-112 0 0 32 112 0 0 112 32 0 0-112 112 0z"/>
<glyph glyph-name="sun-umbrella" unicode="&#55;" d="M183 241l37 19-37 20 22 35-42-1 2 42-35-23-20 37-20-37-35 23 2-42-42 1 22-35-37-20 37-19-22-36 42 2-2-42 35 22 20-37 20 37 35-22-2 42 42-2z m-73-36c-30 0-55 25-55 55 0 31 25 55 55 55 30 0 55-24 55-55 0-30-25-55-55-55z m351-162c-10-8-18-13-34-13-17 0-24 5-34 13-12 7-26 17-52 17-26 0-40-10-51-17-10-8-17-13-34-13-17 0-24 5-34 13-11 7-25 17-51 17-26 0-40-10-52-17-10-8-17-13-34-13-16 0-24 5-34 13-11 7-25 17-51 17l0-30c17 0 24-5 34-12 11-8 25-18 51-18 26 0 40 10 52 18 10 7 17 12 34 12 16 0 24-5 34-12 11-8 25-18 51-18 26 0 40 10 51 18 10 7 18 12 34 12 17 0 24-5 34-12 12-8 26-18 52-18 26 0 40 10 51 18 10 7 17 12 34 12l0 30c-26 0-40-10-51-17z m35 359c-16 36-44 64-79 80l7 19-28 11-7-20c-81 22-168-22-197-103l-6-16 17-4c28-5 55-15 80-29l4-2 4 0c0 0 1 0 1 0 13 0 27-1 39-5l-70-192c-1 0-3 0-5 0-46 0-92-7-135-22-28-10-54-22-79-37 12-5 20-10 27-15 8-6 9-7 16-7 7 0 8 1 17 7 12 9 33 23 69 23 35 0 56-14 68-23 9-6 10-7 17-7 7 0 8 1 17 7 12 9 33 23 68 23 36 0 57-14 69-23 9-6 10-7 17-7 7 0 8 1 16 7 7 5 15 10 27 15-25 15-51 27-79 37-32 11-65 18-98 21l66 183c13-6 24-13 35-22l3-3 4-1c28-5 55-15 79-29l16-8 6 16c15 42 13 86-6 126z"/>
<glyph glyph-name="love" unicode="&#56;" d="M260 102c-25 26-65 78-65 131 0 62 50 113 112 113 22 0 43-6 61-18 18 12 40 18 61 18 32 0 61-13 81-34 1 8 2 16 2 23 0 79-64 142-142 142-27 0-53-7-76-22-15-9-28-21-38-35-10 14-23 26-38 35-23 15-49 22-76 22-78 0-142-63-142-142 0-79 72-164 103-197 26-28 55-54 82-73 30-20 53-30 71-30 15 0 35 7 58 21-23 15-44 35-54 46z m169 214c-23 0-45-10-61-27-15 17-37 27-61 27-45 0-82-37-82-83 0-45 39-92 57-110 24-26 62-57 86-57 24 0 61 27 87 54 21 22 57 66 57 113 0 46-37 83-83 83z"/>
<glyph glyph-name="climbing-sport" unicode="&#57;" d="M281 431c22 0 40 18 40 40 0 23-18 41-40 41-23 0-41-18-41-41 0-22 18-40 41-40z m42-280l-48 44 2 17-72 4c-5-6-11-15-18-24l-20-75-57-76c-8-11-6-27 5-36 5-3 10-5 16-5 8 0 15 4 20 10l60 81c2 2 4 5 4 8l18 65 47-43-7-94c-1-14 10-26 24-27 1 0 1 0 2 0 13 0 25 10 25 24l8 106c0 8-3 15-9 21z m89 171l-72 0-41 58 0 1c2 11-1 23-8 31-7 9-17 15-28 16-12 2-24-2-33-9l0 48c0 8-6 15-15 15l-41 0c-9 0-15-7-15-15l0-23-13 0c-9 0-17-5-22-12-5-8-6-17-3-25l38-95 0-24c0-11 4-22 12-29 5 6 13 10 21 9l92-5 7 55 20-29c4-6 11-10 18-10l83 0c12 0 22 10 22 22 0 12-10 21-22 21z m-214-93l85-5c7 0 13 5 13 12 1 7-5 13-12 14l-93 6c-5 0-10-3-12-7-2-4-52-101-148-87-7 1-14-4-15-11-1-7 4-13 11-14 8-2 15-2 22-2 84 0 134 71 149 94z m295 23c-15 10-38 20-69 19-37 0-71-29-71-29-7-7-6-18 1-24 7-7 18-6 24 1l0 0c0 0 20 21 38 26l-6-224c0 0 0 0 0-1 1-10 9-18 20-18 11 0 19 9 19 19l-7 229c29 0 46-9 46-9 2-1 6 0 7 3 2 3 1 6-2 8z"/>
<glyph glyph-name="balloon" unicode="&#33;" d="M352 152c0 13-11 24-24 24-5 0-10-2-14-5l-39-29c-3 4-7 7-11 9l0 1c0 83 60 129 61 130l-10 12c-2-1-32-24-51-67l0 69-16 0 0-69c-19 43-49 66-51 67l-10-12c1-1 61-47 61-130l0-1c-4-2-8-5-11-9l-39 29c-4 3-9 5-14 5-13 0-24-11-24-24 0-13 11-24 24-24-13 0-24-11-24-24 0-13 11-24 24-24 5 0 10 2 14 5l39 29c1-2 3-4 5-6l-42-60 32-24 16 69 0-85 16 0 0 85 16-69 32 24-42 60c2 2 4 4 5 6l39-29c4-3 9-5 14-5 13 0 24 11 24 24 0 13-11 24-24 24 13 0 24 11 24 24z m-152 193c14-21 34-33 56-33 22 0 42 12 56 33l0 31c0 18 5 34 13 48-9 38-37 64-69 64-32 0-60-26-69-64 8-14 13-30 13-48z m-16 31c0 44-36 80-80 80-44 0-80-36-80-80 0-44 36-80 80-80l80 0z m-80-64c-6 0-12 1-18 3l4 15c5-1 9-2 14-2z m0 112c-26 0-48-22-48-48 0-16 8-30 21-39l-10-13c-17 11-27 31-27 52 0 35 29 64 64 64z m304 32c-44 0-80-36-80-80l0-80 80 0c44 0 80 36 80 80 0 44-36 80-80 80z m0-144l0 16c5 0 9 1 14 2l4-15c-6-2-12-3-18-3z m37 12l-10 13c13 9 21 23 21 39 0 26-22 48-48 48l0 16c35 0 64-29 64-64 0-21-10-41-27-52z"/>
<glyph glyph-name="phone" unicode="&#34;" d="M457 158c0-5-1-12-3-20-2-9-4-15-6-20-4-10-15-20-35-30-17-10-35-15-53-15-5 0-10 0-15 1-5 1-10 2-16 4-6 1-11 3-14 4-3 1-8 3-16 6-7 3-12 4-14 5-18 7-35 14-50 24-24 15-49 35-75 61-26 26-47 51-62 76-9 14-17 31-23 50-1 1-3 6-6 14-2 7-4 13-5 16-1 3-3 7-5 13-1 6-2 12-3 17-1 4-1 9-1 15 0 17 5 35 14 53 11 19 21 31 31 35 4 2 11 4 19 6 9 1 15 2 20 2 3 0 5 0 6 0 4-2 9-9 16-22 2-4 5-9 8-16 4-6 7-12 10-18 3-5 6-10 9-15 1-1 2-3 5-7 3-4 5-8 6-10 1-3 2-6 2-8 0-4-3-9-8-15-5-5-11-11-18-15-6-5-12-10-17-16-6-5-9-9-9-13 0-1 1-4 2-6 1-3 2-5 2-6 1-1 2-4 4-7 2-3 3-5 4-5 14-26 31-49 49-67 19-19 41-36 67-50 1 0 3-1 6-3 3-2 5-4 7-4 1-1 3-2 6-3 2-1 4-1 6-1 3 0 8 2 13 8 5 5 11 11 15 18 5 6 10 12 16 17 6 6 10 8 14 8 3 0 6 0 8-2 3-1 7-3 11-6 4-2 6-4 7-5 4-3 10-6 15-9 5-3 11-6 18-10 7-3 12-6 16-8 13-7 20-12 21-15 1-2 1-4 1-6z"/>
<glyph glyph-name="twitter" unicode="&#35;" d="M481 395c-13-18-28-34-46-47 0-3 0-7 0-12 0-25-3-50-11-74-7-25-18-49-33-71-14-23-32-43-52-61-21-17-45-31-74-41-29-11-60-16-92-16-52 0-99 14-142 42 7-1 14-2 22-2 43 0 81 14 115 40-20 0-38 6-54 18-16 12-27 27-33 46 7-1 13-2 18-2 8 0 16 1 24 4-21 4-39 15-53 31-14 17-21 37-21 59l0 1c13-7 27-11 42-11-13 8-23 19-30 32-8 14-11 29-11 44 0 17 4 33 12 47 23-28 51-51 84-68 33-17 69-27 107-29-2 8-3 15-3 22 0 25 9 47 27 65 18 18 40 27 66 27 26 0 49-10 67-29 21 4 40 11 59 22-7-22-21-39-41-51 18 2 35 7 53 14z"/>
<glyph glyph-name="facebook" unicode="&#36;" d="M384 509l0-76-45 0c-17 0-28-3-33-10-6-7-9-17-9-31l0-54 84 0-11-85-73 0 0-216-87 0 0 216-73 0 0 85 73 0 0 62c0 36 10 63 29 83 20 19 47 29 80 29 28 0 49-1 65-3z"/>
<glyph glyph-name="google-plus" unicode="&#37;" d="M228 285c0-7 3-14 9-21 7-6 14-13 23-19 8-6 17-13 25-21 9-8 16-18 22-30 7-12 10-25 10-40 0-17-5-34-14-50-14-23-34-40-60-51-27-11-55-16-86-16-25 0-48 4-70 11-22 8-38 21-49 40-7 11-11 24-11 37 0 16 5 30 13 43 9 13 20 24 34 33 25 15 63 25 115 28-6 8-10 15-13 22-3 6-5 13-5 20 0 7 2 15 6 25-8-1-15-1-19-1-28 0-52 9-71 27-20 19-29 42-29 70 0 16 3 31 10 45 7 15 16 28 28 38 15 12 32 22 52 28 21 6 41 9 63 9l119 0-39-25-38 0c14-12 25-25 32-38 7-13 11-29 11-46 0-14-2-26-7-37-5-11-10-20-17-26-6-7-13-13-20-19-6-6-12-11-17-18-4-6-7-12-7-18z m-41 27c7 0 14 2 22 5 7 3 14 7 19 12 10 11 15 26 15 46 0 11-2 23-5 35-3 13-8 25-14 37-6 12-14 22-24 30-10 8-21 12-33 12-8 0-16-2-24-6-8-4-14-9-19-15-9-11-13-26-13-46 0-8 1-18 3-28 2-9 5-19 9-29 4-10 9-19 15-26 5-8 13-15 21-20 8-5 18-7 28-7z m0-249c11 0 22 1 32 3 10 3 20 6 28 11 9 5 16 12 21 21 5 9 8 20 8 31 0 5-1 10-2 14-1 5-3 9-4 12-2 4-4 8-8 12-4 5-6 8-8 10-2 2-6 6-11 10-6 5-9 7-11 8-1 2-5 4-12 9-6 5-9 7-10 7-3 1-8 1-14 1-10 0-20-1-30-2-10-1-20-4-30-7-11-4-20-8-28-13-8-6-15-13-20-22-5-8-7-18-7-30 0-13 3-25 10-35 6-10 15-18 26-24 10-5 22-10 34-12 12-3 24-4 36-4z m232 250l60 0 0-31-60 0 0-63-30 0 0 63-61 0 0 31 61 0 0 62 30 0z"/>
<glyph glyph-name="circle" unicode="&#38;" d="M475 256c0-40-9-77-29-110-20-34-46-60-80-80-33-20-70-29-110-29-40 0-77 9-110 29-34 20-60 46-80 80-20 33-29 70-29 110 0 40 9 77 29 110 20 34 46 60 80 80 33 20 70 29 110 29 40 0 77-9 110-29 34-20 60-46 80-80 20-33 29-70 29-110z"/>
<glyph glyph-name="checkmark-circled" unicode="&#39;" d="M256 480c-124 0-224-100-224-224 0-124 100-224 224-224 124 0 224 100 224 224 0 124-100 224-224 224z m115-149l-139-179c-1-1-3-3-5-3-3 0-4 1-5 3-2 1-79 76-79 76l-2 1c0 1-1 2-1 3 0 2 1 3 1 4 1 0 1 0 1 1 8 8 24 24 25 25 1 2 2 3 4 3 3 0 5-2 6-3 1-1 45-43 45-43l111 143c1 0 2 1 4 1 1 0 2 0 3-1l31-24c0-1 1-3 1-4 0-1 0-2-1-3z"/>
<glyph glyph-name="signal" unicode="&#40;" d="M256 154c14 0 26-6 36-16 10-10 15-22 15-36 0-14-5-26-15-36-10-10-22-15-36-15-14 0-25 5-35 15-10 10-15 22-15 36 0 14 5 26 15 36 10 10 21 16 35 16m-108 57c31 30 66 45 108 45 42 0 77-15 108-45 0 0-36-37-36-37-20 20-44 30-72 30-28 0-52-10-72-30 0 0-36 37-36 37m-71 72c50 50 110 75 180 75 69 0 129-25 178-75 0 0-36-36-36-36-39 40-87 60-142 60-56 0-104-20-144-60 0 0-36 36-36 36m-72 72c70 71 154 106 252 106 97 0 181-35 250-106 0 0-36-36-36-36-59 61-131 91-215 91-84 0-156-30-215-91 0 0-36 36-36 36"/>
<glyph glyph-name="swimming" unicode="&#41;" d="M395 299c0-24-19-43-43-43-24 0-43 19-43 43 0 23 19 42 43 42 24 0 43-19 43-42z m0-128c-32 0-54-22-75-22-21 0-32 22-64 22-32 0-43-22-64-22-21 0-43 22-75 22-14 0-28-9-42-14l0-43c0 0 21 14 42 14 22 0 43-21 75-21 32 0 42 20 64 21 21 0 32-21 64-21 32 0 53 21 75 21 15 0 42-14 42-14l0 43c-13 6-28 14-42 14z m-203 24c21 0 32 22 64 22 32 0 43-22 64-22 9 0 18 4 27 8l-90 131 65 33c13 6 12 17 11 24-2 6-9 14-21 14-3 0-9-2-12-3l-85-41c-12-6-16-22-8-32l26-36-101-78c24-5 42-20 60-20z"/>
<glyph glyph-name="icon-ac" unicode="&#42;" d="M303 154l-24-25-14 0 0 15 24 24-13 12-20-20-21 20-12-12 24-24 0-15-14 0-24 25-13-13 21-20-21-21 13-12 24 24 14 0 0-14-24-25 12-12 21 20 20-20 13 12-24 25 0 14 14 0 24-24 13 12-21 21 21 20z m196-54l-24-24-14 0 0 14 24 24-13 13-20-21-20 21-13-13 24-24 0-14-14 0-24 24-13-12 21-21-21-20 13-13 24 24 14 0 0-14-24-24 13-13 20 21 20-21 13 13-24 24 0 14 14 0 24-24 13 13-21 20 21 21z m-392 0l-24-24-14 0 0 14 24 24-13 13-20-21-21 21-12-13 24-24 0-14-14 0-24 24-13-12 20-21-20-20 13-13 24 24 14 0 0-14-24-24 12-13 21 21 20-21 13 13-24 24 0 14 14 0 24-24 13 13-21 20 21 21z m140 172l18 0 0-71-18 0z m89-36l-18 0 0-44c0-2 1-5 3-6l27-27 12 12-24 25z m54 36l0-80c0-2 1-5 2-6l45-45 12 13-42 42 0 76z m-72 0l18 0 0-18-18 0z m-142-76l-24-25 12-12 27 27c2 1 2 4 2 6l0 44-17 0z m-72 0l-42-42 13-13 45 45c1 1 2 4 2 6l0 80-18 0z m72 76l17 0 0-18-17 0z m258 71l-356 0c-5 0-9-4-9-9l0-26 374 0 0 26c0 5-4 9-9 9z m71 134c0 15-11 27-26 27l-446 0c-15 0-27-12-27-27l0-143c0-14 12-26 27-26l18 0 0 26c0 15 12 27 27 27l356 0c15 0 27-12 27-27l0-26 18 0c15 0 26 12 26 26z m-160-27l-18 0 0 18 18 0z m107 0l-89 0 0 18 89 0z"/>
<glyph glyph-name="cigarette" unicode="&#43;" d="M0 156l394 0 0-154-394 0z m425 0l87 0 0-154-87 0z m0 41l0 26c0 39-19 76-50 99-23 17-37 45-37 74l0 26-31 0 0-26c0-39 19-76 50-99 23-17 37-45 37-74l0-26z m37 213c-23 17-37 44-37 73l0 27-31 0 0-27c0-38 19-75 50-98 23-17 37-45 37-74l0-27 31 0 0 27c0 39-19 76-50 99z"/>
<glyph glyph-name="conference" unicode="&#44;" d="M301 404c11 12 18 27 18 45 0 35-28 63-63 63-35 0-63-28-63-63 0-18 7-33 18-45-26-13-44-39-49-69l188 0c-5 30-23 56-49 69z m161-305c11 12 18 27 18 45 0 34-28 63-63 63-35 0-64-29-64-63 0-18 7-33 19-45-15-8-27-19-36-33-8 14-21 25-35 33 11 12 18 27 18 45 0 34-28 63-63 63-35 0-63-29-63-63 0-18 7-33 18-45-14-8-27-19-35-33-9 14-21 25-36 33 12 12 19 27 19 45 0 34-29 63-64 63-35 0-63-29-63-63 0-18 7-33 18-45-30-16-50-48-50-84 0-8 7-15 15-15l482 0c8 0 15 7 15 15 0 36-20 68-50 84z m-77 206l-258 0c-8 0-15-6-15-15 0-8 7-15 15-15l34 0 0-65c5-6 11-12 15-19 16 27 46 46 80 46 34 0 64-19 80-46 4 7 10 13 15 19l0 65 34 0c8 0 15 7 15 15 0 9-7 15-15 15z"/>
<glyph glyph-name="doctor" unicode="&#45;" d="M469 405l-106 0 0 22c0 23-19 42-43 42l-128 0c-24 0-43-19-43-42l0-22-106 0c-24 0-43-19-43-42l0-278c0-23 19-42 43-42l426 0c24 0 43 19 43 42l0 278c0 23-19 42-43 42z m-277 22l128 0 0-22-128 0z m171-246c0-6-5-10-11-10l-53 0 0-54c0-6-5-10-11-10l-64 0c-6 0-11 4-11 10l0 54-53 0c-6 0-11 4-11 10l0 64c0 6 5 11 11 11l53 0 0 53c0 6 5 11 11 11l64 0c6 0 11-5 11-11l0-53 53 0c6 0 11-5 11-11z"/>
<glyph glyph-name="doorman" unicode="&#46;" d="M203 237c-1 1-1 1-3 2l0-34 48-24 0 37c-14 1-27 6-39 15z m61-19l0-37 48 24 0 34c-1-1-2-1-3-2l-6-5c-12-8-25-13-39-14z m-88 190l160 0 0-16-160 0z m80-64c27 0 54 12 72 32l-144 0c18-20 45-32 72-32z m-82 80l164 0 10 33c2 4-2 9-6 9l0 0-86 14-85-13c-4-1-7-5-6-9l0 0z m10-229l0 18-77-26c-16-5-27-21-27-37l0-118 64 0 0 72 16 0 0-72 64 0 0 124 16 10z m221-8l-77 26 0-18-68-33-20-14 0-116 112 0 0 72 16 0 0-72 64 0 0 118c0 16-11 32-27 37z m-133-139l-16 0 0 16 16 0z m0 32l-16 0 0 16 16 0z m0 32l-16 0 0 16 16 0z m80 8l-64 0 0 16 64 0z m-189 210l13-9c0-28 14-55 36-71l6-5c23-16 53-16 76 0l6 5c22 16 36 43 36 71l13 9c2 1 3 4 3 6l0 8c0 5-4 8-9 8l-7 0 0 10c-43-44-114-45-158-2-1 1-1 1-2 2l0-10-7 0c-5 0-8-3-9-8l0-8c0-2 2-5 3-6z"/>
<glyph glyph-name="event" unicode="&#47;" d="M400 352l-128 0 0 32-32 0 0-32-128 0c-26 0-48-22-48-48l0-48 384 0 0 48c0 26-22 48-48 48z m80-128l-448 0c-18 0-32-14-32-32l0-32c0-35 29-64 64-64 35 0 64 29 64 64 0-35 29-64 64-64 35 0 64 29 64 64 0-35 29-64 64-64 35 0 64 29 64 64 0-35 29-64 64-64 35 0 64 29 64 64l0 32c0 18-14 32-32 32z m-32-160c-25 0-47 9-64 25-17-16-39-25-64-25-25 0-47 9-64 25-17-16-39-25-64-25-25 0-47 9-64 25-17-16-39-25-64-25-25 0-47 10-64 25l0-57c0-18 14-32 32-32l448 0c18 0 32 14 32 32l0 57c-17-15-39-25-64-25z m-192 448c0 0-32-46-32-64 0-18 14-32 32-32 18 0 32 14 32 32 0 18-32 64-32 64z"/>
<glyph glyph-name="fireplace" unicode="&#58;" d="M9 512l494 0c5 0 9-4 9-9l0-17c0-5-4-9-9-9l-494 0c-5 0-9 4-9 9l0 17c0 5 4 9 9 9z m35-53l424 0c5 0 9-4 9-9l0-44c0-5-4-9-9-9l-424 0c-5 0-9 4-9 9l0 44c0 5 4 9 9 9z m371-159l0 35c0 5-4 9-9 9l-300 0c-5 0-9-4-9-9l0-35c0-5 4-9 9-9l300 0c5 0 9 4 9 9z m-44 27c0 4 4 8 9 8 4 0 8-4 8-8l0-18c0-5-4-9-8-9-5 0-9 4-9 9z m-36 0c0 4 4 8 9 8 5 0 9-4 9-8l0-18c0-5-4-9-9-9-5 0-9 4-9 9z m-35 0c0 4 4 8 9 8 5 0 9-4 9-8l0-18c0-5-4-9-9-9-5 0-9 4-9 9z m-35 0c0 4 4 8 9 8 5 0 8-4 8-8l0-18c0-5-3-9-8-9-5 0-9 4-9 9z m-35 0c0 4 3 8 8 8 5 0 9-4 9-8l0-18c0-5-4-9-9-9-5 0-8 4-8 9z m-36 0c0 4 4 8 9 8 5 0 9-4 9-8l0-18c0-5-4-9-9-9-5 0-9 4-9 9z m-35 0c0 4 4 8 9 8 5 0 9-4 9-8l0-18c0-5-4-9-9-9-5 0-9 4-9 9z m-35 0c0 4 4 8 8 8 5 0 9-4 9-8l0-18c0-5-4-9-9-9-4 0-8 4-8 9z m-97-230c-3 0-6-1-7-4l-11-16 0-6 17 0c5 0 9-4 9-9 0-5-4-9-9-9l-17 0 0-44c0-5 4-9 9-9l70 0c5 0 9 4 9 9l0 44-35 0c-5 0-9 4-9 9 0 5 4 9 9 9l35 0 0 6-11 16c-1 3-4 4-7 4z m8 247l36 0c4 0 8-4 8-9l0-211c0-5-4-9-8-9l-36 0c-5 0-9 4-9 9l0 211c0 5 4 9 9 9z m-17 36l476 0c5 0 9-4 9-9 0-5-4-9-9-9l-476 0c-5 0-9 4-9 9 0 5 4 9 9 9z m423-36l36 0c5 0 9-4 9-9l0-211c0-5-4-9-9-9l-36 0c-4 0-8 4-8 9l0 211c0 5 4 9 8 9z m27-291c-5 0-9 4-9 9 0 5 4 9 9 9l35 0 0 6-11 16c-1 3-4 4-7 4l-52 0c-3 0-6-1-7-4l-11-16 0-6 18 0c4 0 8-4 8-9 0-5-4-9-8-9l-18 0 0-44c0-5 4-9 9-9l70 0c5 0 9 4 9 9l0 44z m-309 0c0-10 8-18 18-18l158 0c10 0 18 8 18 18 0 10-8 18-18 18l-158 0c-10 0-18-8-18-18z m18-35l-53 0c-5 0-9-4-9-9 0-5 4-9 9-9l264 0c5 0 9 4 9 9 0 5-4 9-9 9z m79 112c-9-9-18-19-18-24 0-10 8-18 18-18l0 0c10 0 18 8 18 18 0 5-9 15-18 24z m150 144l-300 0c-5 0-9-4-9-9l0-156 15-22c2-3 3-7 3-10l0-42 31 0c-4 8-6 17-4 25 4 17 19 29 37 28l18 0c-4 4-8 8-11 12-8 10-11 24-9 36 3 9 6 18 12 25 1 3 2 5 4 7 12 23 1 37 1 37-3 3-3 7-1 10 1 4 5 5 9 5 13-1 27-5 39-11 3 13 10 25 20 33 15 12 34 16 52 13 4-1 7-3 7-7 1-3 0-7-3-9-8-7-14-17-15-27-1-9-1-19 2-27 3-5 6-9 10-12 3-3 5-6 8-9 14-19 17-40 9-57-4-7-9-14-16-19l18 0c18 1 33-11 37-28 2-8 0-17-4-25l31 0 0 42c0 3 1 7 3 10l15 22 0 156c0 5-4 9-9 9z m-202-122c-4-6-7-12-9-19-2-8 0-16 5-23 6-7 14-13 23-16-1 4-2 8-2 12 0 18 25 38 30 42 3 3 7 3 10 0 5-4 30-24 30-42 0-4 0-8-2-12 11 3 20 11 26 21 8 15-2 32-7 38-2 3-5 5-7 8-5 4-10 10-13 17-4 12-5 24-3 36 1 9 4 16 8 24-8-1-15-4-21-9-10-8-15-22-15-41 0-5-3-9-8-10-5 0-9 4-10 9 0 1-3 8-24 13 3-14 0-28-7-40-1-3-3-5-4-8z"/>
<glyph glyph-name="fitness" unicode="&#59;" d="M16 312c0-10 7-19 16-23l0 46c-9-4-16-13-16-23z m464 23l0-46c9 4 16 13 16 23 0 10-7 19-16 23z m-432 41l0-128c0-10 7-19 16-23l0 174c-9-4-16-13-16-23z m80-88l32 0 0 47c0 0 0 1 0 1l-32 0z m-32 136c-9 0-16-7-16-16l0-192c0-9 7-16 16-16 9 0 16 7 16 16l0 192c0 9-7 16-16 16z m208-136c4 0 8 4 8 8l0 80c0 4-4 8-8 8-4 0-8-4-8-8l0-80c0-4 4-8 8-8z m-40-208l-56 0 0-56 112 0 0 56z m8 208c4 0 8 4 8 8l0 96c0 4-4 8-8 8-4 0-8-4-8-8l0-14c5-5 8-11 8-18 0-7-3-13-8-18l0-46c0-4 4-8 8-8z m-24 104c0 4-4 8-8 8-4 0-8-4-8-8l0-8 16 0z m0-96l0 40-29 0c12-14 20-30 25-47 2 2 4 4 4 7z m168 128c-9 0-16-7-16-16l0-192c0-9 7-16 16-16 9 0 16 7 16 16l0 192c0 9-7 16-16 16z m32-25l0-174c9 4 16 13 16 23l0 128c0 10-7 19-16 23z m-88-103c0-3-1-5-1-8l25 0 0 48-24 0z m-56-24c-6 0-12 2-16 6-4-4-10-6-16-6-6 0-12 2-16 6-3-2-6-4-9-5 1-5 1-9 1-14l0-11-16 0 0 11c0 27-11 52-30 71l-2 3 0 19 48 0c4 0 8 4 8 8 0 4-4 8-8 8l-39 0c-9 0-17-3-23-10-7-6-10-14-10-23l0-87c0-3 1-7 4-10l28-35 0-43 112 0 0 42 14 29c1 2 2 4 2 7l0 34c-6 0-12 2-16 6-4-4-10-6-16-6z m-40-128c-13 0-24-11-24-24 0-13 11-24 24-24l56 0 0 48z m-56 0l0-48 24 0c-5 7-8 15-8 24 0 9 3 17 8 24z m128 224c-4 0-8-4-8-8l0-64c0-4 4-8 8-8 4 0 8 4 8 8l0 64c0 4-4 8-8 8z"/>
<glyph glyph-name="wheelchair" unicode="&#60;" d="M331 403c30-2 56 20 58 51 2 30-20 56-50 58-31 2-57-21-59-51-2-30 21-56 51-58z m92-345l-22 0c11 7 16 20 12 33l-37 127c-4 12-15 21-28 21l-43 0 10 28c0 0 0 0 0 0l84 24c13 4 21 18 17 31-4 13-17 20-30 17l-50-15 5 12c8 22-4 46-25 54l-50 18c-21 8-46-3-54-25l-2-7 29 1-63-17c-8-3-15-9-17-18l-25-96c-3-13 5-26 18-30 13-3 27 5 30 18l21 82 49 14-35-19-15-57c7 1 14 2 21 2 75 0 136-62 136-137 0-12-2-25-5-36l2-9c3-7 7-12 13-16l-24 0c-6-12-14-22-22-31l100 0c8 0 16 7 16 15 0 9-8 16-16 16z m-303 192l13 49-14 42c16-9 35 6 29 24l-23 69c-4 11-16 16-26 12-10-3-15-15-12-25l9-26c-4 2-8 2-12 1-8-3-12-12-10-20l45-135c0 3 0 6 1 9z m103-12c-9 0-17-1-25-2l-2-5c-5-21-26-34-47-29-3 1-6 2-9 3-22-21-37-52-37-86 0-66 54-119 120-119 65 0 119 53 119 119 0 66-54 119-119 119z m80-154l-42 24c-2-6-6-12-10-16l42-25c-14-19-36-32-61-35l0 49c-3-1-6-1-9-1-4 0-7 0-10 1l0-49c-25 3-47 16-61 35l42 25c-4 4-7 10-9 16l-43-24c-4 11-7 23-7 35 0 13 3 25 7 36l43-25c2 6 5 12 9 17l-42 24c14 19 36 33 61 35l0-48c3 0 6 1 10 1 3 0 6-1 9-1l0 48c25-2 47-16 61-35l-42-24c4-5 8-11 10-17l42 25c5-11 7-23 7-36 0-12-2-24-7-35z m-53 35c0-15-13-27-27-27-15 0-27 12-27 27 0 15 12 27 27 27 14 0 27-12 27-27z"/>
<glyph glyph-name="vault" unicode="&#61;" d="M421 229l18 0c5 0 9-5 9-10l0-54c0-5-4-10-9-10l-18 0c-5 0-10 5-10 10l0 54c0 5 5 10 10 10z m0 182l18 0c5 0 9-4 9-9l0-55c0-5-4-9-9-9l-18 0c-5 0-10 4-10 9l0 55c0 5 5 9 10 9z m-151-161c19 7 27 29 20 47-8 19-29 28-48 20-19-8-28-29-20-48 8-18 29-27 48-19z m-204-232c0-10 8-18 18-18l90 0c10 0 18 8 18 18l0 19-126 0z m254 0c0-10 8-18 18-18l90 0c10 0 18 8 18 18l0 19-126 0z m137 494l-401 0c-15 0-27-12-27-27l0-403c0-15 12-27 27-27l401 0c15 0 28 12 28 27l0 403c0 15-13 27-28 27z m9-165c0-15-12-27-27-27l0-73c15 0 27-12 27-28l0-54c0-16-12-28-27-28l0-9c0-15-12-27-28-27l-310 0c-16 0-28 12-28 27l0 82c0 5 4 9 9 9 5 0 9-4 9-9l0-82c0-5 5-9 10-9l310 0c5 0 10 4 10 9l0 9c-16 0-28 12-28 28l0 54c0 16 12 28 28 28l0 73c-16 0-28 12-28 27l0 55c0 15 12 28 28 28l0 9c0 5-5 9-10 9l-310 0c-5 0-10-4-10-9l0-183c0-5-4-9-9-9-5 0-9 4-9 9l0 183c0 15 12 27 28 27l310 0c16 0 28-12 28-27l0-9c15 0 27-13 27-28z m-301 64l-37 0 0-36c0-5-4-9-9-9-5 0-9 4-9 9l0 46c0 5 4 9 9 9l46 0c5 0 9-4 9-9 0-5-4-10-9-10z m49-26c48 20 104 3 133-41 29-43 24-101-13-138-37-37-95-43-139-14-43 29-60 85-40 133 11 27 32 49 59 60z m-38-125c3 2 7 1 10-1 2-2 4-5 3-8 0-4-2-6-6-8l-8-3c9-16 22-29 38-37l3 8c1 3 4 5 7 6 4 0 7-1 9-4 2-3 2-6 1-9l-3-8c17-5 35-5 52 0l-3 8c-1 3-1 6 1 9 2 3 5 4 9 4 3-1 6-3 7-6l3-8c16 8 29 21 38 37l-8 3c-4 2-6 4-6 8-1 3 1 6 3 8 3 2 6 3 10 1l8-3c5 17 5 36 0 53l-8-4c-4-1-7 0-10 2-2 2-4 5-3 8 0 3 2 6 6 7l8 4c-9 16-22 29-38 37l-3-8c-1-3-4-5-7-6-4 0-7 1-9 4-2 2-2 6-1 9l3 8c-17 5-35 5-52 0l3-8c1-3 1-7-1-9-2-3-5-4-9-4-3 1-6 3-7 6l-3 8c-16-8-29-21-38-37l8-4c4-1 6-4 6-7 1-3-1-6-3-8-3-2-7-3-10-2l-8 4c-5-17-5-36 0-53z m59 74c28 12 60-2 72-30 11-28-2-60-30-71-28-12-60 1-72 29-11 28 2 60 30 72z"/>
<glyph glyph-name="tv" unicode="&#62;" d="M272 137l-85 0 0-37-52 0 0-30 194 0 0 30-57 0z m187 305l-459 0 0-275 405 0 0 117 54 0z m-24-188l77 0 0-175-77 0z"/>
<glyph glyph-name="taxi" unicode="&#63;" d="M340 442l-15 31c-6 11-17 18-29 18l-80 0c-12 0-23-7-29-18l-15-31c-3-5-1-12 5-14 5-3 11-1 14 5l2 4 126 0 2-4c2-4 6-6 10-6 1 0 3 0 4 1 6 2 8 9 5 14z m108-130c-16 51-54 111-81 124-14 7-69 12-111 12-42 0-97-5-111-12-27-13-65-73-81-124-1-5 2-11 8-13 5-2 11 2 13 7 15 51 52 103 69 111 8 4 52 10 102 10 50 0 94-6 102-10 17-8 54-60 69-111 2-4 6-7 10-7 1 0 2 0 3 0 6 2 9 8 8 13z m-352-99l-73 0c-1-7-2-14-2-21l105 0c-4 12-16 21-30 21z m393 0l-73 0c-14 0-26-9-30-21l105 0c0 7-1 14-2 21z m-295 0l7-42 110 0 7 42z m179-42c-6 0-10 4-10 10 0 30 24 54 53 54l70 0c-7 30-20 61-41 82-2 2-5 3-8 3-2 0-137-11-181-11-44 0-179 11-180 11-4 0-7-1-9-3-21-21-34-52-41-82l70 0c29 0 53-24 53-54 0-6-4-10-10-10l-117 0c1-26 6-61 21-79l0-39c0-17 14-32 32-32l21 0c18 0 32 15 32 32l0 20c24-3 80-9 128-9 48 0 104 6 128 9l0-20c0-17 14-32 32-32l21 0c18 0 32 15 32 32l0 39c15 18 20 53 21 79z m-32 51l-10-64c-1-5-6-9-11-9l-128 0c-5 0-10 4-11 9l-10 64c-1 3 0 7 2 9 2 2 5 4 8 4l150 0c3 0 6-2 8-4 2-3 3-6 2-9z m-257 92l-21 43c-1 2-4 4-7 5 0 0-7 2-16 2-25 0-40-16-40-44 0-20 32-29 52-32 0 0 1 0 1 0 2 0 4 0 5 1l21 11c6 2 8 9 5 14z m388 50c-9 0-16-2-16-2-3-1-6-3-7-5l-21-43c-3-5-1-12 5-14l21-11c1-1 3-1 5-1 0 0 1 0 1 0 20 3 52 12 52 32 0 28-15 44-40 44z"/>
<glyph glyph-name="playarea" unicode="&#64;" d="M256 512c-141 0-256-115-256-256 0-141 115-256 256-256 141 0 256 115 256 256 0 141-115 256-256 256z m9-74l89 36c10-5 20-10 29-16l1 0c9-6 18-12 26-19l1-1c3-3 7-7 11-10 0 0 0-1 1-1 4-4 7-8 11-11 0-1 0-1 1-1 3-4 6-7 8-11 1-1 2-2 2-3 3-4 6-8 9-12l-17-75-88-29-84 67z m-198-37c0 1 1 2 2 3 2 4 5 7 8 10 1 1 1 1 1 1 4 4 7 8 11 12 0 0 1 1 1 1 4 3 7 7 11 10l1 0c8 7 17 14 26 20l0 0c10 6 19 11 29 16l90-36 0-86-84-67-88 29-17 75c3 4 6 8 9 12z m-11-276c-2 4-5 8-7 12l0 1c-3 4-5 8-7 12l0 0c-4 8-8 17-11 26l0 0c-2 5-3 9-4 13l-1 2c-1 4-2 8-3 13 0 0 0 0 0 1-2 9-4 19-5 29l52 62 87-29 25-100-41-55z m257-101c-4-1-9-2-13-3-1 0-1 0-2 0-4-1-8-1-11-2-1 0-2 0-3 0-4-1-7-1-11-1-1 0-2 0-3 0-5-1-9-1-14-1-4 0-8 0-13 0 0 0-1 0-1 1-4 0-7 0-11 0l-1 0c-8 1-16 3-24 4l-50 79 41 55 118 0 42-55z m176 181c0-1 0-1 0-1-1-5-2-9-3-13l-1-2c-1-4-2-8-4-13l0 0c-3-9-7-18-11-26l0 0c-2-4-4-8-7-12l0-1c-2-4-5-8-7-12l-84-13-42 55 25 100 87 29 52-62c-1-10-3-20-5-29z"/>
<glyph glyph-name="pet" unicode="&#91;" d="M342 241c-23 36-62 57-105 57-42 0-82-21-105-57l-55-87c-9-14-14-31-12-48 1-17 7-33 18-46 11-13 26-22 43-25 16-4 34-3 49 4l1 1c40 17 84 16 124-1 10-4 21-6 31-6 6 0 12 0 18 2 17 3 31 12 42 25 12 13 18 29 19 46 1 17-3 34-12 48z m-250 0c16 6 29 19 35 37 6 17 6 36-1 54-7 18-19 32-35 41-17 9-35 11-52 4-33-13-48-54-34-91 12-30 39-49 66-49 7 0 14 1 21 4z m108 68c41 0 75 38 75 85 0 48-34 86-75 86-42 0-76-38-76-86 0-47 34-85 76-85z m129-21l1 0c6-3 12-4 19-4 30 0 60 22 71 56 6 20 6 40-1 58-8 19-22 33-40 39-18 6-37 3-55-7-16-10-29-27-35-46-14-41 4-84 40-96z m159 10l0 0c-29 21-72 12-95-21-24-32-21-76 8-97 10-8 23-11 35-11 22 0 45 11 60 31 24 33 20 76-8 98z"/>
<glyph glyph-name="parking" unicode="&#93;" d="M117 412l-17 0 0-34 17 0c9 0 17 8 17 17 0 9-8 17-17 17z m362-342c19 7 33 25 33 47l0 33c0 23-16 43-37 49l-23 67c-7 21-26 35-48 35l-129 0c-22 0-41-14-48-35l-23-67c-21-6-37-26-37-49l0-33c0-22 14-40 33-47l0-20c0-6 2-11 3-17l-69 0 0 213c56 8 100 57 100 116l0 33c0 65-53 117-117 117-65 0-117-52-117-117l0-33c0-59 44-108 100-116l0-213-83 0c-10 0-17-7-17-16 0-10 7-17 17-17l478 0c10 0 17 7 17 17 0 9-7 16-17 16l-19 0c1 6 3 11 3 17z m-379 275l0-17c0-9-7-16-17-16-9 0-16 7-16 16l0 101c0 9 7 16 16 16l34 0c27 0 50-22 50-50 0-27-23-50-50-50z m159-89c2 7 8 11 16 11l129 0c8 0 14-4 16-11l19-56c-61 0-136 0-199 0z m-42-156c-9 0-17 8-17 17l0 33c0 9 8 17 17 17l21 0 23-67z m80-67c2 6 4 11 4 17l0 17 77 0 0-17c0-6 2-11 4-17z m165 67l-44 0 23 67 21 0c9 0 17-8 17-17l0-33c0-9-8-17-17-17z"/>
<glyph glyph-name="laundry" unicode="&#94;" d="M377 170c-4 5-7 7-12 7-5 0-8-3-12-7-6-7-15-11-24-11-5 0-10 1-15 3 0 0 0 0 0 0-3 3-7 5-10 8-4 4-6 7-12 7-5 0-7-3-12-7-6-7-15-11-24-11-9 0-18 4-24 11-5 4-7 7-12 7-6 0-8-3-13-7-2-3-6-5-9-7 0 0 0-1-1-1-4-2-9-3-14-3-9 0-18 4-24 11-5 4-7 7-12 7-5 0-8-2-12-7-4-4-9-7-14-9 19-59 73-99 135-99 62 0 116 40 135 99-6 2-10 5-14 9z m-59 342l-239 0c-14 0-26-12-26-26l0-71 265 0z m-203-79c-15 0-27 11-27 26 0 15 12 27 27 27 14 0 26-12 26-27 0-7-3-14-8-19-4-5-11-7-18-7z m53 17c-5 0-9 4-9 9 0 5 4 9 9 9 5 0 9-4 9-9 0-5-4-9-9-9z m35 0c-5 0-9 4-9 9 0 5 4 9 9 9 5 0 9-4 9-9 0-5-4-9-9-9z m35 0c-5 0-8 4-8 9 0 5 3 9 8 9 5 0 9-4 9-9 0-5-4-9-9-9z m-114 9c0-5-4-9-9-9-5 0-9 4-9 9 0 5 4 9 9 9 5 0 9-4 9-9z m335-44l0 71c0 14-12 26-26 26l-98 0 0-97z m-97 53l62 0c5 0 9-4 9-9 0-5-4-9-9-9l-62 0c-5 0-9 4-9 9 0 5 4 9 9 9z m-247-265c0-8 1-17 2-25 2 2 4 3 6 5 6 7 15 11 24 11 9 0 18-4 24-11 5-4 7-6 12-6 1 0 2 0 2 0l0 46c-6-1-13 2-17 8l-14 21c-5 8-4 19 4 24l29 21c3 2 6 3 10 3l16 0c7 0 15-5 17-12 5-10 15-15 26-14 11-1 21 4 26 14 2 7 9 12 17 12l16 0c4 0 7-1 10-3l29-21c8-5 9-16 4-24l-14-21c-3-4-7-7-12-8-2 0-4 0-5 0l0-46c0 0 1 0 2 0 5 0 7 2 12 6 6 7 15 11 24 11 9 0 18-4 24-11 2-2 4-4 6-5 9 53-12 106-54 138-43 32-101 37-148 13-48-24-78-72-78-126z m-62 194l0-371c0-14 12-26 26-26l354 0c14 0 26 12 26 26l0 371z m362-194c0-12-2-25-5-36 0-1 0-2 0-3-18-71-81-120-154-120-73 0-136 50-154 120 0 1 0 2 0 2-15 60 7 122 54 161 48 38 113 46 169 19 55-26 90-82 90-143z m-71 59l-29 20-16 0c-7-17-24-27-43-26-20 0-38 11-43 27l-16-1-29-20 15-21 6 4c3 2 6 3 9 1 3-1 5-4 5-8l0-49c5 4 11 5 17 5 9 0 18-4 24-11 4-4 7-6 12-6 5 0 8 2 12 6 6 7 15 11 24 11 6 0 12-1 17-5l0 49c0 4 2 7 5 8 3 2 6 1 9-1l6-4z"/>
<glyph glyph-name="hottub" unicode="&#95;" d="M62 147c0-28 15-55 40-69l-18-18c-1-1-2-4-1-6 0-2 2-3 4-4 2-1 4 0 6 2l19 19c0 0 1 1 1 1 9-3 19-5 29-5l228 0c10 0 20 2 30 6 0 0 0 0 0 0l19-19c2-2 4-2 6-2 2 1 4 2 4 4 1 2 0 5-1 6l-17 17c24 14 39 40 39 68l0 38-388 0z m412 89l-436 0c-11 0-20-9-20-20 0-10 9-19 20-19l436 0c11 0 20 9 20 19 0 11-9 20-20 20z m-281 99c0 3-3 6-6 6-3 0-6-3-6-6l0-7c0-3 3-6 6-6 3 0 6 3 6 6z m-22 0c0 3-3 6-6 6-3 0-6-3-6-6l0-7c0-3 3-6 6-6 3 0 6 3 6 6z m43 0c0 3-3 6-6 6-3 0-6-3-6-6l0-7c0-3 3-6 6-6 3 0 6 3 6 6z m-27-22c-3 0-6-3-6-6l0-7c0-3 3-6 6-6 3 0 6 3 6 6l0 7c0 3-3 6-6 6z m-22 0c-3 0-6-3-6-6l0-7c0-3 3-6 6-6 3 0 6 3 6 6l0 7c0 3-3 6-6 6z m43 0c-3 0-6-3-6-6l0-7c0-3 3-6 6-6 3 0 6 3 6 6l0 7c0 3-3 6-6 6z m-93 105c0 18 15 32 33 32 17 0 32-14 32-32l0-13 12 0 0 13c0 24-20 44-44 44-25 0-45-20-45-44l0-177 12 0z m38-43l68 0 0-14-68 0z m18 24l32 0 0-12-32 0z"/>
<glyph glyph-name="fridge" unicode="&#96;" d="M384 512l-256 0c-24 0-43-19-43-43l0-96c0-6 5-10 11-10l320 0c6 0 11 4 11 10l0 96c0 24-19 43-43 43z m-181-107l-64 0c-5 0-9 3-10 7-2 4-1 8 2 12l11 10c4 4 11 4 15 0 2-2 3-5 3-7l43 0c6 0 10-5 10-11 0-6-4-11-10-11z m213-64l-320 0c-6 0-11-4-11-10l0-267c0-24 19-43 43-43l0-10c0-6 5-11 11-11l21 0c6 0 11 5 11 11l0 10 170 0 0-10c0-6 5-11 11-11l21 0c6 0 11 5 11 11l0 10c24 0 43 19 43 43l0 267c0 6-5 10-11 10z m-213-64l-64 0c-5 0-9 3-10 7-2 4-1 8 2 12l11 10c4 4 11 4 15 0 2-2 3-5 3-7l43 0c6 0 10-5 10-11 0-6-4-11-10-11z"/>
<glyph glyph-name="wine" unicode="&#123;" d="M491 192l-128 0c-6 0-11-5-11-11l0-21c0-38 28-68 64-74l0-65-32 0c-6 0-11-4-11-10 0-6 5-11 11-11l85 0c6 0 11 5 11 11 0 6-5 10-11 10l-32 0 0 65c36 6 64 36 64 74l0 21c0 6-4 11-10 11z m-342 0l-128 0c-6 0-10-5-10-11l0-21c0-38 28-68 64-74l0-65-32 0c-6 0-11-4-11-10 0-6 5-11 11-11l85 0c6 0 11 5 11 11 0 6-5 10-11 10l-32 0 0 65c36 6 64 36 64 74l0 21c0 6-5 11-11 11z m152 179l-7 3c-4 2-6 6-6 10l0 64-64 0 0-64c0-4-2-8-6-10l-7-3c-18-9-30-28-30-48l0-291c0-18 15-32 32-32l86 0c17 0 32 14 32 32l0 291c0 20-12 39-30 48z m8-222l-106 0 0 77c12 3 35 9 53 9 18 0 41-6 53-9z m-32 363l-42 0c-6 0-11-5-11-11l0-32 64 0 0 32c0 6-5 11-11 11z"/>
<glyph glyph-name="roomservice" unicode="&#124;" d="M174 250c0 5 0 11 1 16 1 13 4 26 7 39 2 7 4 13 6 19 2 6 5 12 7 18 6 11 12 22 20 31 2 2 4 5 5 7 2 2 4 4 6 6 4 3 8 7 12 10 8 6 15 12 23 15 7 4 13 8 18 10 11 4 17 6 17 6 0 0-5-4-14-11-5-3-10-7-16-12-6-5-12-12-18-18-3-3-6-8-9-11-2-2-3-4-5-6-1-2-2-5-4-7-6-8-10-19-14-29-2-5-4-11-6-16-1-6-3-12-5-17-2-12-4-24-5-37-1-4-1-9-2-13 99 0 175 0 282 0 1 4 1 9 1 14 0 90-66 164-150 174 5 5 9 12 9 20 0 16-13 28-28 28-16 0-28-12-28-28 0-8 3-15 9-20-85-10-150-84-150-174 0-5 0-10 0-14 11 0 21 0 31 0z m-62-11l400 0 0-35-400 0z m236-60c-21-10-92-35-92-35l-83 5c0 0 48 13 66 17 19 4 11 25 0 25-10 0-99-3-99-3l-60-22 16-99c0 0 12 21 24 21 12 0 119-3 133 0 15 2 102 63 113 70 10 7 2 31-18 21z m-348-23l0-130 91 17-23 125z"/>
<glyph glyph-name="lift" unicode="&#125;" d="M486 384l-36 38c-5 5-15 7-23 0l-38-37c-5-5-6-12-4-18 3-6 8-10 15-10l16 0 0-37c0-12 10-21 21-21 12 0 22 9 22 21l0 37 16 0c6 0 12 4 14 10 3 6 2 13-3 17z m3-239c-2 6-8 10-14 10l-15 0 0 37c0 12-10 21-22 21-11 0-21-9-21-21l0-37-17 0c-6 0-12-4-15-10-2-6-1-13 4-18l37-37c6-6 16-6 23 0l37 37c5 5 6 12 3 18z m-265 250c0-30-24-54-53-54-30 0-54 24-54 54 0 29 24 53 54 53 29 0 53-24 53-53z m-139-139c0 24 19 43 43 43l85 0c24 0 43-19 43-43l0-47c0-24-32-20-32-44l0-80c0-11-10-21-21-21l-64 0c-12 0-22 10-22 21l0 80c0 23-32 20-32 44z m192 213l0-426-213 0 0 426z m0 43l-213 0c-24 0-43-19-43-43l0-426c0-24 19-43 43-43l213 0c24 0 43 19 43 43l0 426c0 24-19 43-43 43z"/>
<glyph glyph-name="entertaintment" unicode="&#126;" d="M512 256c0 141-115 256-256 256-141 0-256-115-256-256 0-141 115-256 256-256l256 0 0 43-115 0c72 47 115 127 115 213z m-131-173c-28-20-68-14-89 15-21 28-14 68 14 89 29 21 69 14 90-14 20-29 14-69-15-90z m-3 280c34 11 70-7 81-41 11-34-8-70-41-81-34-11-70 8-81 41-11 34 8 70 41 81z m-122 106c35 0 64-28 64-64 0-35-29-64-64-64-35 0-64 29-64 64 0 36 29 64 64 64z m-203-147c11 34 47 52 81 41 33-11 52-47 41-81-11-33-47-52-81-41-33 11-52 47-41 81z m167-224c-21-29-61-35-89-15-29 21-35 61-15 90 21 28 61 35 90 14 28-21 35-61 14-89z m15 158c0 12 9 21 21 21 12 0 21-9 21-21 0-12-9-21-21-21-12 0-21 9-21 21z"/>
<glyph glyph-name="pin-alt" unicode="&#92;" d="M256 512c-106 0-192-86-192-192 0-106 192-320 192-320 0 0 192 214 192 320 0 106-86 192-192 192z m0-320c-71 0-128 57-128 128 0 71 57 128 128 128 71 0 128-57 128-128 0-71-57-128-128-128z m0 192c-35 0-64-29-64-64 0-35 29-64 64-64 35 0 64 29 64 64 0 35-29 64-64 64z"/>
<glyph glyph-name="load-b" unicode="&#57344;" d="M288 352c0-18-14-32-32-32-18 0-32 14-32 32l0 96c0 18 14 32 32 32 18 0 32-14 32-32z m-32-160c-18 0-32-14-32-32l0-96c0-18 14-32 32-32 18 0 32 14 32 32l0 96c0 18-14 32-32 32z m192 96l-96 0c-18 0-32-14-32-32 0-18 14-32 32-32l96 0c18 0 32 14 32 32 0 18-14 32-32 32z m-288 0l-96 0c-18 0-32-14-32-32 0-18 14-32 32-32l96 0c18 0 32 14 32 32 0 18-14 32-32 32z m187 13c-13-12-33-12-46 0-12 13-12 33 0 46l68 67c13 13 33 13 45 0 13-12 13-32 0-45z m-136-90c-13 12-33 12-46 0l-67-68c-13-13-13-33 0-46 12-12 32-12 45 0l68 68c12 13 12 33 0 46z m203-68l-67 68c-13 12-33 12-46 0-12-13-12-33 0-46l68-67c13-13 33-13 45 0 13 12 13 32 0 45z m-203 203l-68 68c-13 13-33 13-45 0-13-12-13-32 0-45l67-68c13-12 33-12 46 0 12 13 12 33 0 45z"/>
<glyph glyph-name="delete-trash-1" unicode="&#57345;" d="M464 416l-112 0 0 32c0 64-32 64-64 64l-96 0c-64 0-64-32-64-64l0-32-112 0c-9 0-16-7-16-16l0-32c0-9 7-16 16-16l448 0c9 0 16 7 16 16l0 32c0 9-7 16-16 16m-176 0l-96 0 0 32 96 0z m64-99l0-237c0-9-7-16-16-16-9 0-16 7-16 16l0 237 1 3-66 0 1-3 0-237c0-9-7-16-16-16-9 0-16 7-16 16l0 237 1 3-66 0 1-3 0-237c0-9-7-16-16-16-9 0-16 7-16 16l0 237 1 3-65 0 0-304c0-9 7-16 16-16l320 0c9 0 16 7 16 16l0 304-65 0z"/>
<glyph glyph-name="android-done" unicode="&#57346;" d="M186 172l-90 91-32-31 122-122 262 261-32 31z"/>
<glyph glyph-name="android-close" unicode="&#57347;" d="M405 375l-30 30-119-119-119 119-30-30 119-119-119-119 30-30 119 119 119-119 30 30-119 119z"/>
<glyph glyph-name="navicon-round" unicode="&#57348;" d="M417 288l-322 0c-17 0-31-14-31-32 0-18 14-32 31-32l322 0c17 0 31 14 31 32 0 18-14 32-31 32z m0 128l-322 0c-17 0-31-14-31-32 0-18 14-32 31-32l322 0c17 0 31 14 31 32 0 18-14 32-31 32z m0-256l-322 0c-17 0-31-14-31-32 0-18 14-32 31-32l322 0c17 0 31 14 31 32 0 18-14 32-31 32z"/>
<glyph glyph-name="ledger" unicode="&#57349;" d="M360 464c0 9 3 17 8 24l-320 0c-13 0-24-11-24-24l0-8 336 0z m64-392l0 392c0 13-11 24-24 24-13 0-24-11-24-24l0-16c0-4-4-8-8-8l-280 0 0-392c0-13 11-24 24-24 13 0 24 11 24 24l0 16c0 4 4 8 8 8z m-16 16l-16 0 0 16 16 0z m0 32l-272 0 0 16 272 0z m0 32l-16 0 0 16 16 0z m0 32l-272 0 0 16 272 0z m0 32l-16 0 0 16 16 0z m0 48l0-16-272 0 0 16z m-161 156l-64-104c-1-2-4-4-6-4 0 0-1 0-1 0-2 0-4 1-6 2l-32 32 12 12 24-25 59 95z m-71 4c12 0 24-3 35-9l-8-14c-8 5-17 7-27 7-31 0-56-25-56-56 0-31 25-56 56-56 31 0 56 25 56 56 0 7-1 14-4 21l15 6c3-9 5-18 5-27 0-40-32-72-72-72-40 0-72 32-72 72 0 40 32 72 72 72z m-72-160l16 0 0-16-16 0z m0-32l272 0 0-16-272 0z m0-32l16 0 0-16-16 0z m0-32l272 0 0-16-272 0z m0-32l16 0 0-16-16 0z m0-48l0 16 272 0 0-16z m48-32l0-8c0-9-3-17-8-24l320 0c13 0 24 11 24 24l0 8z"/>
<glyph glyph-name="log-out" unicode="&#57350;" d="M201 101c0-1 0-3 0-6 1-3 1-6 1-8-1-2-1-4-1-6-1-3-2-5-3-6-2-1-4-2-6-2l-91 0c-23 0-42 8-59 24-16 16-24 36-24 58l0 202c0 22 8 42 24 58 17 16 36 24 59 24l91 0c2 0 5-1 6-3 2-2 3-4 3-6 0-1 0-3 0-6 1-3 1-6 1-8-1-2-1-4-1-6-1-3-2-5-3-6-2-1-4-2-6-2l-91 0c-13 0-24-4-33-13-9-9-13-20-13-32l0-202c0-12 4-23 13-32 9-9 20-13 33-13l89 0c0 0 1 0 3-1 2 0 3 0 3 0 0-1 1-1 3-2 1-1 2-2 2-3-1-1 0-2 0-3z m265 155c0-5-2-9-5-13l-156-155c-3-4-7-6-12-6-5 0-10 2-13 6-4 3-6 8-6 13l0 82-128 0c-5 0-9 2-13 5-3 4-5 8-5 13l0 110c0 5 2 9 5 13 4 3 8 5 13 5l128 0 0 82c0 5 2 10 6 13 3 4 8 6 13 6 5 0 9-2 12-6l156-155c3-4 5-8 5-13z"/>
<glyph glyph-name="adventuretours" unicode="&#57352;" d="M502 249l-25 0c-3 0-6-1-8-4l-15-19c-4-5-3-11 1-14 2-2 4-2 7-2 3 0 5 1 7 4l13 15 20 0c6 0 10 5 10 10 0 6-4 10-10 10z m-81-82c-5 3-11 3-15-2l-14-18-43 0-35 120c10 4 17 14 17 25 0 15-12 27-27 27l-6 0-7 25c-1 6-7 9-12 7-6-1-9-7-7-12l6-20-6 0-37 36c1 0 2 1 2 1 11 8 18 19 20 32 2 13-1 25-8 36-7 11-19 18-31 20-27 4-52-13-56-40-3-16 2-31 13-42-3-1-6-3-8-4-5 9-14 17-25 19-9 1-18-1-26-6-7-5-12-13-14-23-1-6 0-12 2-17-1 0-1 0-2-1-2-1-4-4-4-6l-14-81c-3-14 7-28 21-31l17-3c1 0 3 0 4 0 1 0 2 0 3 0l-3-48-24-50c-2-5-3-10-3-15 0-5 1-10 3-15l-12 0c-2 0-3 0-5-1l-80-51c-5-3-6-10-3-14 1-3 5-5 8-5 2 0 4 1 5 2l78 49 38 0c1 0 2 0 2 0 1 0 1 0 2 0l106 0c3 0 5 1 7 3l67 63 82 0c3 0 6 2 8 4l17 22c4 4 3 11-1 14z m-251 37c-4 1-8 1-11 3-7 3-10 10-9 17 1 2 1 4 1 5 29 2 50 10 63 19l-2-14c-1-4 1-9 5-11l36-17 41-52c5-7 4-16-2-21-6-5-16-4-21 3l-35 45c-1 1-3 2-4 3l-30 14c-1 0-2 1-3 1z m140-38l-43 54c0 1-1 2-2 3-1 0-1 0-1 0l-31 15 5 27 55 0 35-118-11 0c0 7-2 14-7 19z m-42 133l23 0c0 0 0 0 0 0 0 0 0 0 0 0l13 0c4 0 7-3 7-7 0-3-3-7-7-7l-3 0c0 0 0 0 0 0l-68 0-20 18c-5 3-11 3-14-1-4-4-4-11 1-14l15-14c-8-8-26-22-60-24l4 21 7 41c0 0 0 0 0 0l2 12c2 12 12 24 33 24 1 0 1 0 2 0 0 0 0 0 0 0 7 0 13-3 18-7 0 0 0 0 0 0l40-39c2-2 5-3 7-3z m-87 102c3 14 15 24 28 24 2 0 4-1 5-1 8-1 14-5 19-11 4-7 6-14 4-22-2-14-14-23-28-23-1 0-3 0-4 0-16 3-26 17-24 33z m-59-56c0 4 3 8 6 10 2 2 5 2 8 2 1 0 2 0 2 0 8-1 14-9 12-17 0-4-3-8-6-10-3-2-7-3-10-2-8 1-14 9-12 17z m3-116l-17 3c-3 0-5 4-4 8l12 70 28-5-5-27-7-45c-1-3-4-5-7-4z m2-146c-5 2-8 7-8 13 0 2 0 4 1 6l25 52c1 1 1 3 1 4l2 32c8-5 17-5 25-7 2 0 3 0 5-1l-2-32-30-60c-2-5-7-8-12-9l-2 0c-2 0-3 1-5 2z m110-2l-72 0 30 62c0 0 0 1 0 1 0 1 0 2 1 3l2 31 23-11 35-44c4-5 9-8 14-11z m151 290l52 0c21 0 38 17 38 39 0 21-17 38-38 38-6 0-11-1-15-3-9 11-22 18-37 18-25 0-46-21-46-46 0-12 5-24 14-32 9-9 20-14 32-14z m0 72c11 0 20-6 24-16 1-3 4-5 7-5 3-1 6 0 9 2 3 3 7 4 12 4 10 0 18-8 18-18 0-11-8-19-18-19l-52 0c-7 0-13 3-18 8-5 5-8 11-8 18 0 14 12 26 26 26z m-328-47c21 0 37 17 37 37 0 20-16 36-37 36-9 0-18-3-25-10-7-7-11-16-11-26 0-20 16-37 36-37z m-11 49c3 3 7 4 11 4 10 0 17-7 17-16 0-9-7-17-17-17-9 0-16 8-16 17 0 4 2 9 5 12z m-44 8l5-3c1 0 3-1 5-1 3 0 7 2 8 5 3 5 1 11-3 14l-5 3c-5 2-11 1-14-4-2-5-1-11 4-14z m111-41l-5 3c-5 3-11 1-13-4-3-4-2-11 3-13l5-3c1-1 3-1 5-1 3 0 7 1 9 5 2 4 1 10-4 13z m-106-18c2 0 3 0 5 1l5 3c4 2 6 9 3 13-2 5-9 7-13 4l-5-3c-5-3-6-9-4-13 2-4 6-5 9-5z m96 55c2 0 4 1 5 1l5 3c5 3 6 9 4 14-3 5-9 6-14 4l-5-3c-5-3-6-9-3-14 1-3 5-5 8-5z m-46 26c6 0 10 5 10 10l0 6c0 6-4 10-10 10-5 0-10-4-10-10l0-6c0-5 5-10 10-10z m-10-95l0-6c0-6 5-10 10-10 6 0 10 4 10 10l0 6c0 5-4 10-10 10-5 0-10-5-10-10z m396-186c-1 4-5 7-10 6-4 0-7-3-9-7-1-4 1-8 4-11 4-2 8-2 12 0 3 3 5 8 3 12z"/>
<glyph glyph-name="agriculturetour" unicode="&#57353;" d="M61 29l-6-5 46 0 22 17c16 13 33 23 52 31-42-3-82-17-114-43z m390 0c-32 26-72 40-114 43 19-8 36-18 52-31l22-17 46 0z m-195 43c-45 0-88-15-123-43l-6-5 258 0-6 5c-35 28-78 43-123 43z m-8 81l0-73 16 0 0 73c18 4 32 20 32 39l0 71c-18-4-32-20-32-39l0 89c18 4 32 20 32 39l0 39c-18-4-32-20-32-39l0 80-16 0 0-80c0 19-14 35-32 39l0-39c0-19 14-35 32-39l0-89c0 19-14 35-32 39l0-71c0-19 14-35 32-39z m48 327l0 7c-18-4-32-20-32-39l0-7c18 4 32 20 32 39z m-48-39l0 7c0 19-14 35-32 39l0-7c0-19 14-35 32-39z m144-336l0-41 16 0 0 41c18 4 32 20 32 39l0 71c-18-4-32-20-32-39l0 89c18 4 32 20 32 39l0 39c-18-4-32-20-32-39l0 80-16 0 0-80c0 19-14 35-32 39l0-39c0-19 14-35 32-39l0-89c0 19-14 35-32 39l0-71c0-19 14-35 32-39z m0 288l0 7c0 19-14 35-32 39l0-7c0-19 14-35 32-39z m48 39l0 7c-18-4-32-20-32-39l0-7c18 4 32 20 32 39z m-336-327l0-41 16 0 0 41c18 4 32 20 32 39l0 71c-18-4-32-20-32-39l0 89c18 4 32 20 32 39l0 39c-18-4-32-20-32-39l0 80-16 0 0-80c0 19-14 35-32 39l0-39c0-19 14-35 32-39l0-89c0 19-14 35-32 39l0-71c0-19 14-35 32-39z m48 327l0 7c-18-4-32-20-32-39l0-7c18 4 32 20 32 39z m-48-39l0 7c0 19-14 35-32 39l0-7c0-19 14-35 32-39z"/>
<glyph glyph-name="binoculars" unicode="&#57354;" d="M159 426l0 25c0 27-21 49-49 49l-1 0c-27 0-49-22-49-49l0-21c31 13 68 12 99-4z m304 0l0 25c0 27-21 49-49 49l-1 0c-27 0-49-22-49-49l0-21c31 13 68 12 99-4z m-213-38l11 0 0-32-11 0z m28 0l10 0 0-32-10 0z m-54 0l10 0 0-32-10 0z m123 34l0 14-173 0 0-19c14-11 25-23 34-39l0 18c0 5 3 8 8 8l80 0c5 0 8-3 8-8l0-18c10 19 25 33 43 44z m-243-200c56 0 102-45 104-102 0 0 0 204 0 205 0 57-46 104-104 104-58 0-104-47-104-104l0-199c5 54 50 96 104 96z m-64 94c0 5 3 8 8 8 5 0 8-3 8-8l0-80c0-5-3-8-8-8-5 0-8 3-8 8z m368 107c-55 0-101-43-104-98l0-196c0-1 0-2 1-3 5 57 56 100 113 95 52-5 92-48 94-101 0 0 0 203 0 205-3 55-49 98-104 98z m64-187c0-5-3-8-8-8-5 0-8 3-8 8l0 80c0 5 3 8 8 8 5 0 8-3 8-8z m-368-64c-31 0-56-25-56-56 0-31 25-56 56-56 31 0 56 25 56 56 0 31-25 56-56 56z m-18-70c-4-3-9-2-12 1-2 3-2 7 0 11l32 32c4 3 9 2 12-1 2-3 2-7 0-11z m48 16l-16-16c-4-3-9-2-12 1-2 3-2 7 0 11l16 16c4 3 9 2 12-1 2-3 2-7 0-11z m-30 88c-49 0-89-40-90-88 0-49 40-89 88-90 49 0 89 40 90 89 0 49-39 88-88 89z m0-162c-40 0-72 32-72 72 0 40 32 72 72 72 40 0 72-32 72-72 0-40-32-72-72-72z m392 73c0 49-40 88-89 87-49 0-88-40-87-89 0-48 40-87 88-87 49 0 88 40 88 89z m-160-1c0 40 32 72 72 72 40 0 72-32 72-72 0-40-32-72-72-72-40 0-72 32-72 72z m128 0c0 31-25 56-56 56-31 0-56-25-56-56 0-31 25-56 56-56 31 0 56 25 56 56z m-26 14c3-4 3-8 0-12l-16-16c-4-3-9-2-12 1-2 3-2 7 0 11l16 16c4 3 8 3 12 0z m-54-30c-5 0-8 3-8 8 0 2 1 4 2 6l32 32c4 3 9 2 12-1 2-3 2-7 0-11l-32-32c-2-1-4-2-6-2z m-162 240c0-4 2-16 2-18l0-46 64 0 0 46c0 2 2 13 2 18z m50-28l-32 0c-5 0-8 3-8 8 0 5 3 8 8 8l32 0c5 0 8-3 8-8 0-5-3-8-8-8z"/>
<glyph glyph-name="cyclingtours" unicode="&#57355;" d="M334 395c22-13 50-6 63 16 13 22 6 50-16 63-22 13-50 6-63-16-13-22-6-50 16-63z m75-158c-2 0-5 0-7 0l-15 74 5 2c11 4 16 17 12 28-4 11-16 16-27 12l-54-20-3 20c7 13 6 31-5 43-22 25-49 13-57 6l-111-90 0 0c-4-3-7-7-9-11-2-6-2-12-1-17-9-1-16-8-16-17 0-10 8-17 17-17l-7-17c-9 3-18 4-28 4-57 0-103-46-103-103 0-56 46-102 103-102 56 0 102 46 102 102 0 38-20 71-50 89l11 27 18 0 63-26-33-55c-9-14-4-33 10-41 5-3 10-5 15-5 10 0 20 6 26 15l31 50 19-12c-5-13-8-27-8-42 0-56 46-102 102-102 57 0 103 46 103 102 0 57-46 103-103 103z m-306-180c-43 0-77 35-77 77 0 43 34 77 77 77 6 0 12-1 18-2l-22-50c-12-2-21-12-21-25 0-14 11-25 25-25 9 0 17 5 21 12l54 0c-6-36-37-64-75-64z m75 90l-54 0c0 1-1 1-1 2l21 50c18-12 31-30 34-52z m131 63l8 13c5 7 6 17 3 25-3 8-9 15-17 18l-55 23 34 27 1-15c1-7 5-13 11-16 3-2 7-3 11-3 2 0 5 0 7 1l50 19 15-70c-19-7-36-19-48-34z m82-50l-40 24c8 10 19 17 31 22z m18-103c-42 0-77 35-77 77 0 10 2 20 6 28l46-28c0 0 0 0 0 0 0-14 11-25 25-25 14 0 25 11 25 25 0 11-7 20-16 24l-11 53c1 0 1 0 2 0 43 0 77-34 77-77 0-42-34-77-77-77z"/>
<glyph glyph-name="educationtours" unicode="&#57356;" d="M210 206c3-2 8-2 10 1l22 23-12 6c-12 6-24 14-33 25l-33-20z m92 0l45 34-33 20c-9-10-20-18-32-25l-13-6 22-23c3-1 8-2 11 0z m-18-12c-1 0-2 1-3 2l-25 25-25-25c-1-1-2-2-3-2l28-56z m-95 187c-3-2-5-4-5-7l0-38c0-36 21-70 53-86l15-8c2 0 5 0 7 0l15 8c33 16 53 50 53 86l0 32c0 5-3 8-8 8l-24 0c-17 0-32 14-32 32l0 4z m-16-76c-3 10-5 21-5 32l0 37c0 9 6 18 14 22l98 40 0-28c0-9 7-16 16-16l24 0c14 0 24-10 24-24l0-32c0-10-2-22-5-32 19 17 31 40 32 66l2 20c1 27-14 52-39 63l-46 20c-21 9-44 9-64 0l-46-20c-25-11-40-36-39-63l2-20c1-25 13-49 32-65z m51-273l64 0 0 80-64 0z m16 64l32 0 0-16-32 0z m0-32l32 0 0-16-32 0z m136 8l0 16 7 0c10 0 17 7 17 17 0 7-5 13-11 16l-18 5-35-81-14 6 70 162-30 18-50-37c-3-3-8-4-12-5l-31-61 35 0 0-96 128 0 0 45c-7-3-15-5-22-5z m69 70l-33 79-34-80 16-6c16-5 26-24 20-41 0-1 0-2 0-2-1-2-2-3-3-5 22 1 38 19 37 41 0 5-2 10-3 14z m-233 48c-5 0-9 1-12 4l-50 38-36-22c-20-13-33-36-33-61l0-117 64 0 0 96 16 0 0-96 48 0 0 96 35 0z"/>
<glyph glyph-name="foresttours" unicode="&#57357;" d="M488 168l-32 0 0 61c0 2 0 3 0 4 11-6 24-6 36 0 2 1 4 4 4 7 0 2-1 5-4 7-2 1-5 1-8 0-7-3-16-3-22 2l-9 5c-1 5-3 10-5 14-6 20-23 34-44 36l-5 8c-7 10-18 16-30 16l-5 0-34 48c-3 4-7 7-11 10l-2 0c-1 1-3 2-5 2l0 12c0 4-4 8-8 8-4 0-8-4-8-8l0-12c-2 0-4-1-5-2l-1 0c-5-3-9-6-12-11l-13-19c-1-2-1-5 0-8 1-2 4-4 7-4l0 0c10 0 20 2 29 6l24-43c3-5 7-10 11-14l16-16 0-109-16 0c0 18-14 32-32 32-18 0-32-14-32-32l-16 0 0 25c19 4 32 20 32 39l0 64c0 22-18 40-40 40-22 0-40-18-40-40l0-28c-3 1-5 2-8 3 0 0 0 1 0 1 0 18-14 32-32 32-18 0-32-14-32-32 0 0 0-1 0-1-3-1-5-2-8-3l0 1c0 26-21 48-48 48-27 0-48-22-48-48l0-40c0-24 17-44 40-48l0-13-48 0c-4 0-8-4-8-8 0-4 4-8 8-8l35 0c-2-5-3-10-3-16l0-16-16 0c-4 0-8-4-8-8l0-44c0-5 4-8 8-8l16 0 0-12c0-4 3-7 6-8l22-5c4-10 13-16 23-17 11-1 21 5 26 14l103 0c5-9 14-14 24-14 10 0 19 5 24 14l20 0c4 0 8 4 8 8l0 32c0 3-2 6-4 7l-31 15-22 34 9 0c4 0 8 4 8 8 0 6-1 11-3 16l219 0c4 0 8 4 8 8 0 4-4 8-8 8z m-432-92l-8 0 0 28 8 0z m156 139c5-11 16-20 28-22l0-18c-3 1-5 1-8 1l-56 0 0 25c6 1 11 3 16 7l0 0c7 0 14 2 20 7z m-68 41c0 0 1 0 1 0 3 0 5 1 7 3 1 2 2 5 1 8-2 6 0 14 5 18 6 4 14 4 20 0 5-4 7-12 5-18-1-3 0-6 1-8 2-2 4-3 7-3 0 0 1 0 1 0 6 0 11-3 14-9 3-5 3-11-1-16-3-5-9-8-15-7-2 0-4 0-6-2-2-2-5-4-8-5l0 10 12 6c2 1 4 4 4 7 0 2-1 5-4 7-2 1-5 1-8 0l-12-6-12 6c-3 1-6 1-8 0-3-2-4-5-4-7 0-3 2-6 4-7l12-6 0-10c-3 1-6 3-8 5-2 2-4 2-6 2-6-1-12 2-15 7-4 5-4 11-1 16 3 6 8 9 14 9z m-18-42c5-4 11-6 18-6l0 0c5-4 10-6 16-7l0-25-64 0c-3 0-5 0-8-1l0 6c18 3 32 16 38 33z m-78 15l0 40c0 17 14 32 32 32 18 0 32-15 32-32l0-40c0-15-10-28-24-31l0 50 12 6c4 2 5 6 3 10-2 4-7 6-11 4l-4-2 0 11c0 4-4 8-8 8-4 0-8-4-8-8l0-43-4 2c-4 2-9 0-11-4-2-4-1-8 3-10l12-6 0-18c-14 3-24 16-24 31z m24-101l32 0 0-32-32 0z m37-94c-6 0-11 5-11 11 0 6 5 11 11 11 6 0 11-5 11-11 0-6-5-11-11-11z m91 14l-64 0c-2 13-12 23-25 24-13 1-25-8-28-20l-11 2 0 26 128 0z m-80 48l0 32 32 0 0-32z m80 0l-32 0 0 32 32 0z m-127 48c4 10 13 16 23 16l136 0c10 0 19-6 23-16z m187-110c-6 0-11 5-11 11 0 6 5 11 11 11 6 0 11-5 11-11 0-6-5-11-11-11z m36 33l0-19-9 0c-2 14-13 24-27 24-14 0-25-10-27-24l-17 0 0 32 54 0z m-39 29l-41 0 0 32 20 0z m-9 176c-4 0-8-4-8-8l0-55c-10 4-16 13-16 23l0 64c0 13 11 24 24 24 13 0 24-11 24-24l0-64c0-10-6-19-16-23l0 55c0 4-4 8-8 8z m40-104c0 9 7 16 16 16 9 0 16-7 16-16z m128 0l-24 0 0 64 13 0 11-11z m24 0l-8 0 0 56c0 2-1 4-2 6l-16 16c-2 1-4 2-6 2l-24 0c-4 0-8-4-8-8l0-72-8 0 0 112c0 2-1 4-2 6l-19 18c-3 3-6 7-8 11l-28 49c-2 4-7 5-11 3l-2-1c-3-1-6-3-10-4l3 4c2 3 4 4 6 6l1 0c4 2 8 2 12 0l2-1c2-1 3-2 5-4l36-52c2-2 4-3 7-3l9 0c7 0 13-3 17-9l7-11c2-3 4-4 7-4l0 0c12 0 23-6 29-16l-13 0 0-16 16 0 0 10c0-1 1-2 1-3 0 0 0 0 0-1l0 0c5-10 7-21 7-33z m-332 176l25 0 21-22c3-3 9-3 12 0l21 22 25 0c20 0 36 16 36 36l0 80c0 20-16 36-36 36l-104 0c-20 0-36-16-36-36l0-80c0-20 16-36 36-36z m-20 116c0 11 9 20 20 20l104 0c11 0 20-9 20-20l0-80c0-11-9-20-20-20l-28 0c-2 0-4-1-6-2l-18-19-18 19c-2 1-4 2-6 2l-28 0c-11 0-20 9-20 20z m296-188l16 0 0-16-16 0z m-16 32l16 0 0-16-16 0z m-48-168l-24 0c-4 0-8-4-8-8 0-4 4-8 8-8l24 0c4 0 8 4 8 8 0 4-4 8-8 8z m40 0l-16 0c-4 0-8-4-8-8 0-4 4-8 8-8l16 0c4 0 8 4 8 8 0 4-4 8-8 8z m-16-72c0-4 4-8 8-8l16 0c4 0 8 4 8 8 0 4-4 8-8 8l-16 0c-4 0-8-4-8-8z m48 8c-4 0-8-4-8-8 0-4 4-8 8-8l32 0c4 0 8 4 8 8 0 4-4 8-8 8z m64 32l-24 0c-4 0-8-4-8-8 0-4 4-8 8-8l24 0c4 0 8 4 8 8 0 4-4 8-8 8z m32 0l-8 0c-4 0-8-4-8-8 0-4 4-8 8-8l8 0c4 0 8 4 8 8 0 4-4 8-8 8z m-272 296c0 0 0 0 0 0 0 2 0 4-1 6l-5 40c-2 11-12 19-23 18-11-1-19-10-19-21l0 0c-5 1-11 1-16 0l0 0c0 11-8 20-19 21-11 1-21-7-22-18l-6-40c-1-2-1-4-1-6 0 0 0 0 0 0 0 0 0 0 0 0 0-13 11-24 24-24 13 0 24 11 24 24l0 3c5 1 11 1 16 0 0-1 0-2 0-3 0-13 11-24 24-24 13 0 24 11 24 24 0 0 0 0 0 0z m-27 48c2 0 4-2 5-4l3-20c-5 0-9 0-13-1l0 20c0 3 2 5 5 5z m-58 0c3 0 5-2 5-5l0-20c-4 1-8 1-13 1l3 20c1 2 3 4 5 4z m21-29l0 8c5 1 11 1 16 0l0-8c-5 1-11 1-16 0z m-32-19c0 4 4 8 8 8 4 0 8-4 8-8 0-4-4-8-8-8-4 0-8 4-8 8z m64 0c0 4 4 8 8 8 4 0 8-4 8-8 0-4-4-8-8-8-4 0-8 4-8 8z"/>
<glyph glyph-name="medicaltour" unicode="&#57358;" d="M417 334l-68 0 0-78-77 0 0-68 77 0 0-77 68 0 0 77 78 0 0 68-78 0z m-179-44l78 0 0 77 135 0 0-77 39 0c14 22 22 48 22 76 0 78-63 141-141 141-47 0-89-23-115-59-26 36-68 59-115 59-78 0-141-63-141-141 0-34 12-65 32-90l224-271 60 72 0 78-78 0z"/>
<glyph glyph-name="pilgrimtours" unicode="&#57359;" d="M500 172c0 1 1 2 1 3 0 1-1 2-2 3 3 2 5 5 5 8 0 4-2 7-4 8l-5 8-4-8c-3-1-5-4-5-8 0-3 2-6 5-8-1-1-1-2-1-3 0-1 0-2 1-3l-26 0c1 1 1 2 1 3 0 1-1 2-2 3 4 2 6 5 6 8 0 4-2 7-5 8l-5 8-4-8c-3-1-5-4-5-8 0-3 2-6 6-8-1-1-2-2-2-3 0-1 0-2 1-3l-26 0c1 1 1 2 1 3 0 1 0 2-1 3 3 2 5 5 5 8 0 4-2 7-5 8l-4 8-5-8c-2-1-4-4-4-8 0-3 2-6 5-8-1-1-2-2-2-3 0-1 1-2 1-3l-25 0c0 1 0 2 0 3 0 3-2 5-5 5-1 0-2-1-3-1l0 2c1-1 2-1 3-1 5 0 9 4 9 9 0 3-2 6-4 8l-5 7-4-7c-1 0-2-1-2-2l-56 282 0 0 0 21-22-21-12 0c1 1 1 2 1 3 0 1-1 2-1 3 3 2 5 5 5 9 0 3-2 6-5 8l-4 7-5-7c-3-2-5-5-5-8 0-4 3-7 6-9-1-1-2-2-2-3 0-1 1-2 1-3l-25 0c0 1 0 2 0 3 0 1 0 2-1 3 3 2 5 5 5 9 0 3-2 6-4 8l-5 7-5-7c-2-2-4-5-4-8 0-4 2-7 5-9-1-1-1-2-1-3 0-1 0-2 0-3l-25 0c0 1 1 2 1 3 0 1-1 2-2 3 3 2 6 5 6 9 0 3-2 6-5 8l-5 7-4-7c-3-2-5-5-5-8 0-4 2-7 5-9 0-1-1-2-1-3 0-1 0-2 1-3l-12 0-22 21 0-21 0 0-56-282c0 1-1 2-2 2l-4 7-5-7c-2-2-4-5-4-8 0-5 4-9 9-9 1 0 2 0 3 1l0-2c-1 0-2 1-3 1-3 0-5-2-5-5 0-1 0-2 0-3l-25 0c0 1 1 2 1 3 0 1-1 2-2 3 3 2 5 5 5 8 0 4-2 7-4 8l-5 8-4-8c-3-1-5-4-5-8 0-3 2-6 5-8-1-1-1-2-1-3 0-1 0-2 1-3l-26 0c1 1 1 2 1 3 0 1-1 2-2 3 4 2 6 5 6 8 0 4-2 7-5 8l-4 8-5-8c-3-1-5-4-5-8 0-3 2-6 6-8-1-1-2-2-2-3 0-1 0-2 1-3l-26 0c1 1 1 2 1 3 0 1 0 2-1 3 3 2 5 5 5 8 0 4-2 7-5 8l-4 8-5-8c-2-1-4-4-4-8 0-3 2-6 5-8-1-1-1-2-1-3 0-1 0-2 0-3l-12 0 0-167 56 0 0 92-3 0 0 10 23 0 0-10-3 0 0-92 17 0 0 92-3 0 0 10 24 0 0-10-4 0 0-92 18 0 0 92-3 0 0 10 23 0 0-10-3 0 0-92 82 0 0 122 64 0 0-122 82 0 0 92-3 0 0 10 23 0 0-10-3 0 0-92 18 0 0 92-4 0 0 10 24 0 0-10-3 0 0-92 17 0 0 92-3 0 0 10 23 0 0-10-3 0 0-92 56 0 0 167z m-420-63l-32 0 0 8 6 0 0 5 7 0 0-5 7 0 0 5 7 0 0-5 5 0z m35 0l-32 0 0 8 5 0 0 5 8 0 0-5 6 0 0 5 8 0 0-5 5 0z m35 0l-33 0 0 8 6 0 0 5 7 0 0-5 7 0 0 5 7 0 0-5 6 0z m114 108l-16 0 0 24 16 0z m0 69l-16 0 0 24 16 0z m0 69l-16 0 0 24 16 0z m0 70l-16 0 0 24 16 0z m131-316l-33 0 0 8 6 0 0 5 7 0 0-5 7 0 0 5 7 0 0-5 6 0z m34 0l-32 0 0 8 5 0 0 5 8 0 0-5 6 0 0 5 8 0 0-5 5 0z m35 0l-32 0 0 8 5 0 0 5 7 0 0-5 7 0 0 5 7 0 0-5 6 0z"/>
<glyph glyph-name="watersports" unicode="&#57351;" d="M448 211c-33-12-69 5-81 38-12 33 5 69 38 81 33 12 69-5 81-38 12-33-5-69-38-81z m-360-26c7 7 19 17 45 17 26 0 38-10 46-17 5-4 7-6 16-6 9 0 10 2 16 6 8 7 19 17 45 17 26 0 38-10 46-17 5-4 7-6 16-6 9 0 10 2 16 6 4 4 10 9 19 13 0 11-4 26-15 42-6 9-55 78-55 78l60 48c10 8 12 22 4 32-8 9-21 11-31 3l-77-61c-10-7-12-20-5-30l44-62-168-41c-16-3-28-14-34-28 5 1 7 2 12 6z m391-25c6 5 10 9 23 9 6 0 10 4 10 10 0 5-4 10-10 10-20 0-29-8-36-14-7-5-11-9-25-9-14 0-19 4-25 9-7 6-16 14-37 14-20 0-29-8-36-14-7-5-11-9-25-9-14 0-19 4-25 9-7 6-16 14-37 14-21 0-29-8-36-14-7-5-11-9-25-9-15 0-19 4-25 9-7 6-16 14-37 14-21 0-29-8-37-14-6-5-10-9-24-9-15 0-19 4-25 9-7 6-16 14-37 14-5 0-10-5-10-10 0-6 5-10 10-10 13 0 18-4 23-9 8-7 17-14 39-14 21 0 30 7 38 14 6 5 10 9 23 9 13 0 18-4 24-9 7-7 16-14 38-14 21 0 31 7 38 14 6 5 10 9 23 9 13 0 18-4 24-9 7-7 16-14 38-14 22 0 31 7 38 14 6 5 10 9 23 9 13 0 18-4 24-9 7-7 16-14 38-14 22 0 31 7 38 14z m0 0c6 5 10 9 23 9 6 0 10 4 10 10 0 5-4 10-10 10-20 0-29-8-36-14-7-5-11-9-25-9-14 0-19 4-25 9-7 6-16 14-37 14-20 0-29-8-36-14-7-5-11-9-25-9-14 0-19 4-25 9-7 6-16 14-37 14-21 0-29-8-36-14-7-5-11-9-25-9-15 0-19 4-25 9-7 6-16 14-37 14-21 0-29-8-37-14-6-5-10-9-24-9-15 0-19 4-25 9-7 6-16 14-37 14-5 0-10-5-10-10 0-6 5-10 10-10 13 0 18-4 23-9 8-7 17-14 39-14 21 0 30 7 38 14 6 5 10 9 23 9 13 0 18-4 24-9 7-7 16-14 38-14 21 0 31 7 38 14 6 5 10 9 23 9 13 0 18-4 24-9 7-7 16-14 38-14 22 0 31 7 38 14 6 5 10 9 23 9 13 0 18-4 24-9 7-7 16-14 38-14 22 0 31 7 38 14z m0-40c6 5 10 9 23 9 6 0 10 4 10 10 0 6-4 10-10 10-20 0-29-8-36-14-7-5-11-9-25-9-14 0-19 4-25 9-7 6-16 14-37 14-20 0-29-8-36-14-7-5-11-9-25-9-14 0-19 4-25 9-7 6-16 14-37 14-21 0-29-8-36-14-7-5-11-9-25-9-15 0-19 4-25 9-7 6-16 14-37 14-21 0-29-8-37-14-6-5-10-9-24-9-15 0-19 4-25 9-7 6-16 14-37 14-5 0-10-4-10-10 0-6 5-10 10-10 13 0 18-4 23-9 8-6 17-14 39-14 21 0 30 8 38 14 6 5 10 9 23 9 13 0 18-4 24-9 7-6 16-14 38-14 21 0 31 8 38 14 6 5 10 9 23 9 13 0 18-4 24-9 7-6 16-14 38-14 22 0 31 8 38 14 6 5 10 9 23 9 13 0 18-4 24-9 7-6 16-14 38-14 22 0 31 8 38 14z"/>
</font>
</defs>
</svg>
